<?xml version="1.0" encoding="utf-8" standalone="no"?>
<!DOCTYPE svg PUBLIC "-//W3C//DTD SVG 1.1//EN"
  "http://www.w3.org/Graphics/SVG/1.1/DTD/svg11.dtd">
<!-- Created with matplotlib (https://matplotlib.org/) -->
<svg height="576pt" version="1.1" viewBox="0 0 1152 576" width="1152pt" xmlns="http://www.w3.org/2000/svg" xmlns:xlink="http://www.w3.org/1999/xlink">
 <defs>
  <style type="text/css">
*{stroke-linecap:butt;stroke-linejoin:round;}
  </style>
 </defs>
 <g id="figure_1">
  <g id="patch_1">
   <path d="M 0 576 
L 1152 576 
L 1152 0 
L 0 0 
z
" style="fill:#ffffff;"/>
  </g>
  <g id="axes_1">
   <g id="patch_2">
    <path d="M 144 504 
L 1036.8 504 
L 1036.8 69.12 
L 144 69.12 
z
" style="fill:#ffffff;"/>
   </g>
   <g id="PathCollection_1">
    <defs>
     <path d="M -3 0 
L 3 0 
M 0 3 
L 0 -3 
" id="m086095891c" style="stroke:#000000;stroke-opacity:0.8;stroke-width:1.5;"/>
    </defs>
    <g clip-path="url(#p5257c3e2b2)">
     <use style="fill-opacity:0.8;stroke:#000000;stroke-opacity:0.8;stroke-width:1.5;" x="151.47741" xlink:href="#m086095891c" y="200.471686"/>
     <use style="fill-opacity:0.8;stroke:#000000;stroke-opacity:0.8;stroke-width:1.5;" x="1031.815481" xlink:href="#m086095891c" y="88.887273"/>
     <use style="fill-opacity:0.8;stroke:#000000;stroke-opacity:0.8;stroke-width:1.5;" x="150.536524" xlink:href="#m086095891c" y="90.381332"/>
     <use style="fill-opacity:0.8;stroke:#000000;stroke-opacity:0.8;stroke-width:1.5;" x="178.124287" xlink:href="#m086095891c" y="199.688009"/>
     <use style="fill-opacity:0.8;stroke:#000000;stroke-opacity:0.8;stroke-width:1.5;" x="291.351649" xlink:href="#m086095891c" y="164.35717"/>
     <use style="fill-opacity:0.8;stroke:#000000;stroke-opacity:0.8;stroke-width:1.5;" x="898.03896" xlink:href="#m086095891c" y="131.645615"/>
     <use style="fill-opacity:0.8;stroke:#000000;stroke-opacity:0.8;stroke-width:1.5;" x="179.544704" xlink:href="#m086095891c" y="99.802928"/>
     <use style="fill-opacity:0.8;stroke:#000000;stroke-opacity:0.8;stroke-width:1.5;" x="151.678887" xlink:href="#m086095891c" y="165.586987"/>
     <use style="fill-opacity:0.8;stroke:#000000;stroke-opacity:0.8;stroke-width:1.5;" x="341.10968" xlink:href="#m086095891c" y="142.978392"/>
     <use style="fill-opacity:0.8;stroke:#000000;stroke-opacity:0.8;stroke-width:1.5;" x="420.874776" xlink:href="#m086095891c" y="160.952607"/>
     <use style="fill-opacity:0.8;stroke:#000000;stroke-opacity:0.8;stroke-width:1.5;" x="179.806641" xlink:href="#m086095891c" y="144.826227"/>
     <use style="fill-opacity:0.8;stroke:#000000;stroke-opacity:0.8;stroke-width:1.5;" x="179.918292" xlink:href="#m086095891c" y="166.933045"/>
     <use style="fill-opacity:0.8;stroke:#000000;stroke-opacity:0.8;stroke-width:1.5;" x="382.440343" xlink:href="#m086095891c" y="140.969736"/>
     <use style="fill-opacity:0.8;stroke:#000000;stroke-opacity:0.8;stroke-width:1.5;" x="154.567691" xlink:href="#m086095891c" y="167.649752"/>
     <use style="fill-opacity:0.8;stroke:#000000;stroke-opacity:0.8;stroke-width:1.5;" x="727.482296" xlink:href="#m086095891c" y="180.620124"/>
     <use style="fill-opacity:0.8;stroke:#000000;stroke-opacity:0.8;stroke-width:1.5;" x="173.6169" xlink:href="#m086095891c" y="280.038254"/>
     <use style="fill-opacity:0.8;stroke:#000000;stroke-opacity:0.8;stroke-width:1.5;" x="587.097666" xlink:href="#m086095891c" y="230.403078"/>
     <use style="fill-opacity:0.8;stroke:#000000;stroke-opacity:0.8;stroke-width:1.5;" x="304.733905" xlink:href="#m086095891c" y="180.755719"/>
     <use style="fill-opacity:0.8;stroke:#000000;stroke-opacity:0.8;stroke-width:1.5;" x="159.339605" xlink:href="#m086095891c" y="196.869544"/>
     <use style="fill-opacity:0.8;stroke:#000000;stroke-opacity:0.8;stroke-width:1.5;" x="145.230748" xlink:href="#m086095891c" y="210.295747"/>
     <use style="fill-opacity:0.8;stroke:#000000;stroke-opacity:0.8;stroke-width:1.5;" x="145.608102" xlink:href="#m086095891c" y="169.035678"/>
     <use style="fill-opacity:0.8;stroke:#000000;stroke-opacity:0.8;stroke-width:1.5;" x="627.695331" xlink:href="#m086095891c" y="175.251161"/>
     <use style="fill-opacity:0.8;stroke:#000000;stroke-opacity:0.8;stroke-width:1.5;" x="200.984176" xlink:href="#m086095891c" y="234.836866"/>
     <use style="fill-opacity:0.8;stroke:#000000;stroke-opacity:0.8;stroke-width:1.5;" x="241.884164" xlink:href="#m086095891c" y="140.575074"/>
     <use style="fill-opacity:0.8;stroke:#000000;stroke-opacity:0.8;stroke-width:1.5;" x="157.897714" xlink:href="#m086095891c" y="166.321043"/>
     <use style="fill-opacity:0.8;stroke:#000000;stroke-opacity:0.8;stroke-width:1.5;" x="179.231793" xlink:href="#m086095891c" y="149.664691"/>
     <use style="fill-opacity:0.8;stroke:#000000;stroke-opacity:0.8;stroke-width:1.5;" x="213.107479" xlink:href="#m086095891c" y="141.751652"/>
     <use style="fill-opacity:0.8;stroke:#000000;stroke-opacity:0.8;stroke-width:1.5;" x="474.168142" xlink:href="#m086095891c" y="193.941387"/>
     <use style="fill-opacity:0.8;stroke:#000000;stroke-opacity:0.8;stroke-width:1.5;" x="145.547974" xlink:href="#m086095891c" y="161.589451"/>
     <use style="fill-opacity:0.8;stroke:#000000;stroke-opacity:0.8;stroke-width:1.5;" x="145.499073" xlink:href="#m086095891c" y="164.288719"/>
     <use style="fill-opacity:0.8;stroke:#000000;stroke-opacity:0.8;stroke-width:1.5;" x="145.515586" xlink:href="#m086095891c" y="213.09635"/>
     <use style="fill-opacity:0.8;stroke:#000000;stroke-opacity:0.8;stroke-width:1.5;" x="460.845206" xlink:href="#m086095891c" y="175.206801"/>
     <use style="fill-opacity:0.8;stroke:#000000;stroke-opacity:0.8;stroke-width:1.5;" x="600.482223" xlink:href="#m086095891c" y="200.424276"/>
     <use style="fill-opacity:0.8;stroke:#000000;stroke-opacity:0.8;stroke-width:1.5;" x="798.932931" xlink:href="#m086095891c" y="211.847066"/>
     <use style="fill-opacity:0.8;stroke:#000000;stroke-opacity:0.8;stroke-width:1.5;" x="241.095626" xlink:href="#m086095891c" y="182.204253"/>
     <use style="fill-opacity:0.8;stroke:#000000;stroke-opacity:0.8;stroke-width:1.5;" x="462.58067" xlink:href="#m086095891c" y="196.526642"/>
     <use style="fill-opacity:0.8;stroke:#000000;stroke-opacity:0.8;stroke-width:1.5;" x="164.649058" xlink:href="#m086095891c" y="188.896057"/>
     <use style="fill-opacity:0.8;stroke:#000000;stroke-opacity:0.8;stroke-width:1.5;" x="348.185368" xlink:href="#m086095891c" y="206.876477"/>
     <use style="fill-opacity:0.8;stroke:#000000;stroke-opacity:0.8;stroke-width:1.5;" x="232.893221" xlink:href="#m086095891c" y="158.534044"/>
     <use style="fill-opacity:0.8;stroke:#000000;stroke-opacity:0.8;stroke-width:1.5;" x="160.455689" xlink:href="#m086095891c" y="144.442424"/>
     <use style="fill-opacity:0.8;stroke:#000000;stroke-opacity:0.8;stroke-width:1.5;" x="805.939289" xlink:href="#m086095891c" y="213.860406"/>
     <use style="fill-opacity:0.8;stroke:#000000;stroke-opacity:0.8;stroke-width:1.5;" x="252.006814" xlink:href="#m086095891c" y="169.17819"/>
     <use style="fill-opacity:0.8;stroke:#000000;stroke-opacity:0.8;stroke-width:1.5;" x="284.802773" xlink:href="#m086095891c" y="191.733014"/>
     <use style="fill-opacity:0.8;stroke:#000000;stroke-opacity:0.8;stroke-width:1.5;" x="394.397067" xlink:href="#m086095891c" y="170.475558"/>
     <use style="fill-opacity:0.8;stroke:#000000;stroke-opacity:0.8;stroke-width:1.5;" x="520.372531" xlink:href="#m086095891c" y="196.778699"/>
     <use style="fill-opacity:0.8;stroke:#000000;stroke-opacity:0.8;stroke-width:1.5;" x="382.689871" xlink:href="#m086095891c" y="242.634491"/>
     <use style="fill-opacity:0.8;stroke:#000000;stroke-opacity:0.8;stroke-width:1.5;" x="578.889385" xlink:href="#m086095891c" y="222.980826"/>
     <use style="fill-opacity:0.8;stroke:#000000;stroke-opacity:0.8;stroke-width:1.5;" x="290.429016" xlink:href="#m086095891c" y="230.502824"/>
     <use style="fill-opacity:0.8;stroke:#000000;stroke-opacity:0.8;stroke-width:1.5;" x="148.518037" xlink:href="#m086095891c" y="183.33727"/>
     <use style="fill-opacity:0.8;stroke:#000000;stroke-opacity:0.8;stroke-width:1.5;" x="154.704736" xlink:href="#m086095891c" y="194.067"/>
     <use style="fill-opacity:0.8;stroke:#000000;stroke-opacity:0.8;stroke-width:1.5;" x="385.800426" xlink:href="#m086095891c" y="214.429411"/>
     <use style="fill-opacity:0.8;stroke:#000000;stroke-opacity:0.8;stroke-width:1.5;" x="154.533852" xlink:href="#m086095891c" y="268.252499"/>
     <use style="fill-opacity:0.8;stroke:#000000;stroke-opacity:0.8;stroke-width:1.5;" x="261.300505" xlink:href="#m086095891c" y="246.993925"/>
     <use style="fill-opacity:0.8;stroke:#000000;stroke-opacity:0.8;stroke-width:1.5;" x="145.800582" xlink:href="#m086095891c" y="209.243809"/>
     <use style="fill-opacity:0.8;stroke:#000000;stroke-opacity:0.8;stroke-width:1.5;" x="144.074765" xlink:href="#m086095891c" y="200.599467"/>
     <use style="fill-opacity:0.8;stroke:#000000;stroke-opacity:0.8;stroke-width:1.5;" x="144.834944" xlink:href="#m086095891c" y="247.614048"/>
     <use style="fill-opacity:0.8;stroke:#000000;stroke-opacity:0.8;stroke-width:1.5;" x="144.301816" xlink:href="#m086095891c" y="259.989576"/>
     <use style="fill-opacity:0.8;stroke:#000000;stroke-opacity:0.8;stroke-width:1.5;" x="332.210074" xlink:href="#m086095891c" y="301.63822"/>
     <use style="fill-opacity:0.8;stroke:#000000;stroke-opacity:0.8;stroke-width:1.5;" x="169.202946" xlink:href="#m086095891c" y="187.546803"/>
     <use style="fill-opacity:0.8;stroke:#000000;stroke-opacity:0.8;stroke-width:1.5;" x="157.144625" xlink:href="#m086095891c" y="195.589314"/>
     <use style="fill-opacity:0.8;stroke:#000000;stroke-opacity:0.8;stroke-width:1.5;" x="262.89799" xlink:href="#m086095891c" y="201.005081"/>
     <use style="fill-opacity:0.8;stroke:#000000;stroke-opacity:0.8;stroke-width:1.5;" x="247.367607" xlink:href="#m086095891c" y="225.37535"/>
     <use style="fill-opacity:0.8;stroke:#000000;stroke-opacity:0.8;stroke-width:1.5;" x="153.229251" xlink:href="#m086095891c" y="193.269661"/>
     <use style="fill-opacity:0.8;stroke:#000000;stroke-opacity:0.8;stroke-width:1.5;" x="156.015388" xlink:href="#m086095891c" y="217.257312"/>
     <use style="fill-opacity:0.8;stroke:#000000;stroke-opacity:0.8;stroke-width:1.5;" x="146.288436" xlink:href="#m086095891c" y="217.49781"/>
     <use style="fill-opacity:0.8;stroke:#000000;stroke-opacity:0.8;stroke-width:1.5;" x="309.63312" xlink:href="#m086095891c" y="225.573484"/>
     <use style="fill-opacity:0.8;stroke:#000000;stroke-opacity:0.8;stroke-width:1.5;" x="151.112375" xlink:href="#m086095891c" y="197.696637"/>
     <use style="fill-opacity:0.8;stroke:#000000;stroke-opacity:0.8;stroke-width:1.5;" x="154.707642" xlink:href="#m086095891c" y="217.633816"/>
     <use style="fill-opacity:0.8;stroke:#000000;stroke-opacity:0.8;stroke-width:1.5;" x="144.901921" xlink:href="#m086095891c" y="216.798886"/>
     <use style="fill-opacity:0.8;stroke:#000000;stroke-opacity:0.8;stroke-width:1.5;" x="144.302472" xlink:href="#m086095891c" y="214.710217"/>
     <use style="fill-opacity:0.8;stroke:#000000;stroke-opacity:0.8;stroke-width:1.5;" x="245.79523" xlink:href="#m086095891c" y="222.902421"/>
     <use style="fill-opacity:0.8;stroke:#000000;stroke-opacity:0.8;stroke-width:1.5;" x="325.467884" xlink:href="#m086095891c" y="229.651676"/>
     <use style="fill-opacity:0.8;stroke:#000000;stroke-opacity:0.8;stroke-width:1.5;" x="144.02461" xlink:href="#m086095891c" y="484.232727"/>
     <use style="fill-opacity:0.8;stroke:#000000;stroke-opacity:0.8;stroke-width:1.5;" x="147.198672" xlink:href="#m086095891c" y="192.600807"/>
     <use style="fill-opacity:0.8;stroke:#000000;stroke-opacity:0.8;stroke-width:1.5;" x="146.167872" xlink:href="#m086095891c" y="266.683089"/>
     <use style="fill-opacity:0.8;stroke:#000000;stroke-opacity:0.8;stroke-width:1.5;" x="386.762969" xlink:href="#m086095891c" y="260.286199"/>
     <use style="fill-opacity:0.8;stroke:#000000;stroke-opacity:0.8;stroke-width:1.5;" x="144.284704" xlink:href="#m086095891c" y="236.384606"/>
     <use style="fill-opacity:0.8;stroke:#000000;stroke-opacity:0.8;stroke-width:1.5;" x="161.354121" xlink:href="#m086095891c" y="218.894873"/>
     <use style="fill-opacity:0.8;stroke:#000000;stroke-opacity:0.8;stroke-width:1.5;" x="150.349586" xlink:href="#m086095891c" y="212.657542"/>
     <use style="fill-opacity:0.8;stroke:#000000;stroke-opacity:0.8;stroke-width:1.5;" x="198.523828" xlink:href="#m086095891c" y="208.768908"/>
     <use style="fill-opacity:0.8;stroke:#000000;stroke-opacity:0.8;stroke-width:1.5;" x="237.412709" xlink:href="#m086095891c" y="198.810849"/>
     <use style="fill-opacity:0.8;stroke:#000000;stroke-opacity:0.8;stroke-width:1.5;" x="144.122989" xlink:href="#m086095891c" y="253.26047"/>
     <use style="fill-opacity:0.8;stroke:#000000;stroke-opacity:0.8;stroke-width:1.5;" x="146.693402" xlink:href="#m086095891c" y="189.082905"/>
     <use style="fill-opacity:0.8;stroke:#000000;stroke-opacity:0.8;stroke-width:1.5;" x="207.272842" xlink:href="#m086095891c" y="288.706856"/>
     <use style="fill-opacity:0.8;stroke:#000000;stroke-opacity:0.8;stroke-width:1.5;" x="353.065464" xlink:href="#m086095891c" y="243.829698"/>
     <use style="fill-opacity:0.8;stroke:#000000;stroke-opacity:0.8;stroke-width:1.5;" x="144.581571" xlink:href="#m086095891c" y="294.693086"/>
     <use style="fill-opacity:0.8;stroke:#000000;stroke-opacity:0.8;stroke-width:1.5;" x="218.180112" xlink:href="#m086095891c" y="204.173065"/>
     <use style="fill-opacity:0.8;stroke:#000000;stroke-opacity:0.8;stroke-width:1.5;" x="144.041889" xlink:href="#m086095891c" y="220.731924"/>
     <use style="fill-opacity:0.8;stroke:#000000;stroke-opacity:0.8;stroke-width:1.5;" x="144.13697" xlink:href="#m086095891c" y="243.803296"/>
     <use style="fill-opacity:0.8;stroke:#000000;stroke-opacity:0.8;stroke-width:1.5;" x="145.855733" xlink:href="#m086095891c" y="343.669819"/>
     <use style="fill-opacity:0.8;stroke:#000000;stroke-opacity:0.8;stroke-width:1.5;" x="312.071575" xlink:href="#m086095891c" y="251.638245"/>
     <use style="fill-opacity:0.8;stroke:#000000;stroke-opacity:0.8;stroke-width:1.5;" x="277.432497" xlink:href="#m086095891c" y="279.522869"/>
     <use style="fill-opacity:0.8;stroke:#000000;stroke-opacity:0.8;stroke-width:1.5;" x="144.318544" xlink:href="#m086095891c" y="244.617429"/>
     <use style="fill-opacity:0.8;stroke:#000000;stroke-opacity:0.8;stroke-width:1.5;" x="156.377226" xlink:href="#m086095891c" y="226.495618"/>
     <use style="fill-opacity:0.8;stroke:#000000;stroke-opacity:0.8;stroke-width:1.5;" x="148.389985" xlink:href="#m086095891c" y="200.84215"/>
     <use style="fill-opacity:0.8;stroke:#000000;stroke-opacity:0.8;stroke-width:1.5;" x="181.640976" xlink:href="#m086095891c" y="223.444216"/>
     <use style="fill-opacity:0.8;stroke:#000000;stroke-opacity:0.8;stroke-width:1.5;" x="356.876981" xlink:href="#m086095891c" y="277.190182"/>
     <use style="fill-opacity:0.8;stroke:#000000;stroke-opacity:0.8;stroke-width:1.5;" x="157.601822" xlink:href="#m086095891c" y="271.087657"/>
     <use style="fill-opacity:0.8;stroke:#000000;stroke-opacity:0.8;stroke-width:1.5;" x="144.190149" xlink:href="#m086095891c" y="282.061328"/>
     <use style="fill-opacity:0.8;stroke:#000000;stroke-opacity:0.8;stroke-width:1.5;" x="144.699071" xlink:href="#m086095891c" y="260.358645"/>
     <use style="fill-opacity:0.8;stroke:#000000;stroke-opacity:0.8;stroke-width:1.5;" x="144.053509" xlink:href="#m086095891c" y="242.576805"/>
     <use style="fill-opacity:0.8;stroke:#000000;stroke-opacity:0.8;stroke-width:1.5;" x="161.834768" xlink:href="#m086095891c" y="340.353339"/>
     <use style="fill-opacity:0.8;stroke:#000000;stroke-opacity:0.8;stroke-width:1.5;" x="228.814177" xlink:href="#m086095891c" y="235.00403"/>
     <use style="fill-opacity:0.8;stroke:#000000;stroke-opacity:0.8;stroke-width:1.5;" x="144.819805" xlink:href="#m086095891c" y="269.834663"/>
     <use style="fill-opacity:0.8;stroke:#000000;stroke-opacity:0.8;stroke-width:1.5;" x="151.602288" xlink:href="#m086095891c" y="240.949976"/>
     <use style="fill-opacity:0.8;stroke:#000000;stroke-opacity:0.8;stroke-width:1.5;" x="144.83407" xlink:href="#m086095891c" y="252.372473"/>
     <use style="fill-opacity:0.8;stroke:#000000;stroke-opacity:0.8;stroke-width:1.5;" x="144.133187" xlink:href="#m086095891c" y="258.366927"/>
     <use style="fill-opacity:0.8;stroke:#000000;stroke-opacity:0.8;stroke-width:1.5;" x="151.262828" xlink:href="#m086095891c" y="276.078383"/>
     <use style="fill-opacity:0.8;stroke:#000000;stroke-opacity:0.8;stroke-width:1.5;" x="144.016578" xlink:href="#m086095891c" y="326.110559"/>
     <use style="fill-opacity:0.8;stroke:#000000;stroke-opacity:0.8;stroke-width:1.5;" x="144.035433" xlink:href="#m086095891c" y="290.850729"/>
     <use style="fill-opacity:0.8;stroke:#000000;stroke-opacity:0.8;stroke-width:1.5;" x="286.905783" xlink:href="#m086095891c" y="285.65563"/>
     <use style="fill-opacity:0.8;stroke:#000000;stroke-opacity:0.8;stroke-width:1.5;" x="144.01128" xlink:href="#m086095891c" y="251.714967"/>
     <use style="fill-opacity:0.8;stroke:#000000;stroke-opacity:0.8;stroke-width:1.5;" x="144.854877" xlink:href="#m086095891c" y="253.998202"/>
     <use style="fill-opacity:0.8;stroke:#000000;stroke-opacity:0.8;stroke-width:1.5;" x="200.724554" xlink:href="#m086095891c" y="206.852975"/>
     <use style="fill-opacity:0.8;stroke:#000000;stroke-opacity:0.8;stroke-width:1.5;" x="167.276683" xlink:href="#m086095891c" y="334.094695"/>
     <use style="fill-opacity:0.8;stroke:#000000;stroke-opacity:0.8;stroke-width:1.5;" x="147.561397" xlink:href="#m086095891c" y="250.121516"/>
     <use style="fill-opacity:0.8;stroke:#000000;stroke-opacity:0.8;stroke-width:1.5;" x="153.590512" xlink:href="#m086095891c" y="259.672916"/>
     <use style="fill-opacity:0.8;stroke:#000000;stroke-opacity:0.8;stroke-width:1.5;" x="144.183319" xlink:href="#m086095891c" y="289.339551"/>
     <use style="fill-opacity:0.8;stroke:#000000;stroke-opacity:0.8;stroke-width:1.5;" x="144.286037" xlink:href="#m086095891c" y="272.629194"/>
     <use style="fill-opacity:0.8;stroke:#000000;stroke-opacity:0.8;stroke-width:1.5;" x="153.074799" xlink:href="#m086095891c" y="213.590374"/>
     <use style="fill-opacity:0.8;stroke:#000000;stroke-opacity:0.8;stroke-width:1.5;" x="144.224616" xlink:href="#m086095891c" y="268.730627"/>
     <use style="fill-opacity:0.8;stroke:#000000;stroke-opacity:0.8;stroke-width:1.5;" x="144.083879" xlink:href="#m086095891c" y="278.92203"/>
     <use style="fill-opacity:0.8;stroke:#000000;stroke-opacity:0.8;stroke-width:1.5;" x="144.234405" xlink:href="#m086095891c" y="258.150254"/>
     <use style="fill-opacity:0.8;stroke:#000000;stroke-opacity:0.8;stroke-width:1.5;" x="437.052632" xlink:href="#m086095891c" y="272.559928"/>
     <use style="fill-opacity:0.8;stroke:#000000;stroke-opacity:0.8;stroke-width:1.5;" x="837.413889" xlink:href="#m086095891c" y="276.841405"/>
     <use style="fill-opacity:0.8;stroke:#000000;stroke-opacity:0.8;stroke-width:1.5;" x="144.063729" xlink:href="#m086095891c" y="262.167174"/>
     <use style="fill-opacity:0.8;stroke:#000000;stroke-opacity:0.8;stroke-width:1.5;" x="144.053712" xlink:href="#m086095891c" y="293.992411"/>
     <use style="fill-opacity:0.8;stroke:#000000;stroke-opacity:0.8;stroke-width:1.5;" x="182.379824" xlink:href="#m086095891c" y="243.759873"/>
     <use style="fill-opacity:0.8;stroke:#000000;stroke-opacity:0.8;stroke-width:1.5;" x="144.111542" xlink:href="#m086095891c" y="291.573112"/>
     <use style="fill-opacity:0.8;stroke:#000000;stroke-opacity:0.8;stroke-width:1.5;" x="144.675" xlink:href="#m086095891c" y="399.758181"/>
     <use style="fill-opacity:0.8;stroke:#000000;stroke-opacity:0.8;stroke-width:1.5;" x="144.663122" xlink:href="#m086095891c" y="396.64954"/>
     <use style="fill-opacity:0.8;stroke:#000000;stroke-opacity:0.8;stroke-width:1.5;" x="151.09125" xlink:href="#m086095891c" y="271.983667"/>
     <use style="fill-opacity:0.8;stroke:#000000;stroke-opacity:0.8;stroke-width:1.5;" x="144.024907" xlink:href="#m086095891c" y="327.424977"/>
     <use style="fill-opacity:0.8;stroke:#000000;stroke-opacity:0.8;stroke-width:1.5;" x="147.464633" xlink:href="#m086095891c" y="339.977587"/>
     <use style="fill-opacity:0.8;stroke:#000000;stroke-opacity:0.8;stroke-width:1.5;" x="154.429567" xlink:href="#m086095891c" y="252.405371"/>
     <use style="fill-opacity:0.8;stroke:#000000;stroke-opacity:0.8;stroke-width:1.5;" x="144.083718" xlink:href="#m086095891c" y="332.3341"/>
     <use style="fill-opacity:0.8;stroke:#000000;stroke-opacity:0.8;stroke-width:1.5;" x="144.138729" xlink:href="#m086095891c" y="297.603378"/>
     <use style="fill-opacity:0.8;stroke:#000000;stroke-opacity:0.8;stroke-width:1.5;" x="693.147366" xlink:href="#m086095891c" y="344.821103"/>
     <use style="fill-opacity:0.8;stroke:#000000;stroke-opacity:0.8;stroke-width:1.5;" x="144.189021" xlink:href="#m086095891c" y="279.529409"/>
     <use style="fill-opacity:0.8;stroke:#000000;stroke-opacity:0.8;stroke-width:1.5;" x="772.012688" xlink:href="#m086095891c" y="345.838764"/>
     <use style="fill-opacity:0.8;stroke:#000000;stroke-opacity:0.8;stroke-width:1.5;" x="144.146531" xlink:href="#m086095891c" y="304.55958"/>
     <use style="fill-opacity:0.8;stroke:#000000;stroke-opacity:0.8;stroke-width:1.5;" x="155.906609" xlink:href="#m086095891c" y="349.93638"/>
     <use style="fill-opacity:0.8;stroke:#000000;stroke-opacity:0.8;stroke-width:1.5;" x="351.931476" xlink:href="#m086095891c" y="279.431486"/>
     <use style="fill-opacity:0.8;stroke:#000000;stroke-opacity:0.8;stroke-width:1.5;" x="151.461545" xlink:href="#m086095891c" y="286.334503"/>
     <use style="fill-opacity:0.8;stroke:#000000;stroke-opacity:0.8;stroke-width:1.5;" x="150.045524" xlink:href="#m086095891c" y="359.785041"/>
     <use style="fill-opacity:0.8;stroke:#000000;stroke-opacity:0.8;stroke-width:1.5;" x="166.759486" xlink:href="#m086095891c" y="364.713909"/>
     <use style="fill-opacity:0.8;stroke:#000000;stroke-opacity:0.8;stroke-width:1.5;" x="200.98798" xlink:href="#m086095891c" y="318.302289"/>
     <use style="fill-opacity:0.8;stroke:#000000;stroke-opacity:0.8;stroke-width:1.5;" x="150.477521" xlink:href="#m086095891c" y="393.241916"/>
     <use style="fill-opacity:0.8;stroke:#000000;stroke-opacity:0.8;stroke-width:1.5;" x="144.215755" xlink:href="#m086095891c" y="449.801739"/>
     <use style="fill-opacity:0.8;stroke:#000000;stroke-opacity:0.8;stroke-width:1.5;" x="150.273655" xlink:href="#m086095891c" y="484.232727"/>
    </g>
   </g>
   <g id="PolyCollection_1">
    <path clip-path="url(#p5257c3e2b2)" d="M 144.01128 234.503411 
L 144.01128 261.599088 
L 152.978999 260.53223 
L 161.946719 259.553598 
L 170.914438 258.69514 
L 179.882157 257.813468 
L 188.849876 256.971846 
L 197.817595 255.962059 
L 206.785315 254.652024 
L 215.753034 253.560202 
L 224.720753 252.520255 
L 233.688472 251.5677 
L 242.656191 250.729543 
L 251.623911 249.854651 
L 260.59163 249.294912 
L 269.559349 248.489042 
L 278.527068 247.736779 
L 287.494787 246.877279 
L 296.462507 246.254948 
L 305.430226 245.576325 
L 314.397945 244.927791 
L 323.365664 244.365297 
L 332.333383 243.64985 
L 341.301103 243.179655 
L 350.268822 242.695109 
L 359.236541 242.531527 
L 368.20426 242.213973 
L 377.171979 241.572657 
L 386.139699 241.205618 
L 395.107418 240.853956 
L 404.075137 240.594569 
L 413.042856 240.41465 
L 422.010575 240.213114 
L 430.978295 240.004371 
L 439.946014 239.584426 
L 448.913733 239.247168 
L 457.881452 238.904786 
L 466.849171 238.464898 
L 475.81689 238.080585 
L 484.78461 237.958819 
L 493.752329 237.837831 
L 502.720048 237.508572 
L 511.687767 237.130639 
L 520.655486 236.998763 
L 529.623206 236.810691 
L 538.590925 236.638476 
L 547.558644 236.347124 
L 556.526363 236.053491 
L 565.494082 235.77625 
L 574.461802 235.466223 
L 583.429521 235.415835 
L 592.39724 235.211277 
L 601.364959 235.023948 
L 610.332678 235.028673 
L 619.300398 235.029473 
L 628.268117 235.030272 
L 637.235836 234.940017 
L 646.203555 234.788091 
L 655.171274 234.634623 
L 664.138994 234.480321 
L 673.106713 234.326018 
L 682.074432 234.171716 
L 691.042151 234.017414 
L 700.00987 233.862984 
L 708.97759 233.706354 
L 717.945309 233.549724 
L 726.913028 233.393094 
L 735.880747 233.274457 
L 744.848466 233.367258 
L 753.816186 233.42596 
L 762.783905 233.249703 
L 771.751624 233.073445 
L 780.719343 232.891444 
L 789.687062 232.707717 
L 798.654782 232.584473 
L 807.622501 232.482608 
L 816.59022 232.377825 
L 825.557939 232.157508 
L 834.525658 231.7991 
L 843.493378 231.603888 
L 852.461097 231.421627 
L 861.428816 231.2379 
L 870.396535 231.054173 
L 879.364254 230.870445 
L 888.331974 230.686718 
L 897.299693 230.502991 
L 906.267412 230.319264 
L 915.235131 230.151046 
L 924.20285 230.067929 
L 933.17057 229.984811 
L 942.138289 229.901693 
L 951.106008 229.753327 
L 960.073727 229.557389 
L 969.041446 229.36145 
L 978.009166 229.165512 
L 986.976885 228.969574 
L 995.944604 228.773636 
L 1004.912323 228.577698 
L 1013.880042 228.409719 
L 1022.847762 228.255669 
L 1031.815481 228.101619 
L 1031.815481 118.12183 
L 1031.815481 118.12183 
L 1022.847762 119.518951 
L 1013.880042 120.827098 
L 1004.912323 122.135245 
L 995.944604 123.495064 
L 986.976885 124.890154 
L 978.009166 126.285244 
L 969.041446 127.680334 
L 960.073727 129.075424 
L 951.106008 130.470513 
L 942.138289 131.868409 
L 933.17057 133.206667 
L 924.20285 134.511927 
L 915.235131 135.923434 
L 906.267412 137.430399 
L 897.299693 138.856249 
L 888.331974 140.251191 
L 879.364254 141.646133 
L 870.396535 143.041076 
L 861.428816 144.436018 
L 852.461097 145.83096 
L 843.493378 147.225903 
L 834.525658 148.620845 
L 825.557939 150.015787 
L 816.59022 151.41073 
L 807.622501 152.726789 
L 798.654782 153.981438 
L 789.687062 155.236087 
L 780.719343 156.490735 
L 771.751624 157.745384 
L 762.783905 159.000033 
L 753.816186 160.254682 
L 744.848466 161.50933 
L 735.880747 162.763979 
L 726.913028 164.018628 
L 717.945309 165.273277 
L 708.97759 166.532435 
L 700.00987 167.793945 
L 691.042151 169.040058 
L 682.074432 170.305243 
L 673.106713 171.618806 
L 664.138994 173.085567 
L 655.171274 174.552329 
L 646.203555 176.01909 
L 637.235836 177.485851 
L 628.268117 178.952613 
L 619.300398 180.209567 
L 610.332678 181.46186 
L 601.364959 182.714152 
L 592.39724 183.966445 
L 583.429521 185.218738 
L 574.461802 186.429051 
L 565.494082 187.572015 
L 556.526363 188.714979 
L 547.558644 189.857964 
L 538.590925 191.002089 
L 529.623206 192.146215 
L 520.655486 193.29034 
L 511.687767 194.436202 
L 502.720048 195.864563 
L 493.752329 197.338878 
L 484.78461 198.516433 
L 475.81689 200.078307 
L 466.849171 201.516574 
L 457.881452 202.774904 
L 448.913733 204.132527 
L 439.946014 205.283611 
L 430.978295 206.666502 
L 422.010575 208.052011 
L 413.042856 209.264934 
L 404.075137 210.622651 
L 395.107418 212.050601 
L 386.139699 213.183221 
L 377.171979 214.313129 
L 368.20426 215.403133 
L 359.236541 216.566081 
L 350.268822 217.652564 
L 341.301103 218.946024 
L 332.333383 220.091049 
L 323.365664 221.315588 
L 314.397945 222.262657 
L 305.430226 223.219789 
L 296.462507 224.259809 
L 287.494787 225.138739 
L 278.527068 226.027679 
L 269.559349 226.90958 
L 260.59163 227.764326 
L 251.623911 228.533169 
L 242.656191 229.146707 
L 233.688472 229.762235 
L 224.720753 230.507955 
L 215.753034 230.982824 
L 206.785315 231.442706 
L 197.817595 231.969461 
L 188.849876 232.521519 
L 179.882157 233.076484 
L 170.914438 233.628854 
L 161.946719 234.006499 
L 152.978999 234.252006 
L 144.01128 234.503411 
z
" style="fill:#008000;fill-opacity:0.15;"/>
   </g>
   <g id="matplotlib.axis_1">
    <g id="xtick_1">
     <g id="line2d_1">
      <defs>
       <path d="M 0 0 
L 0 3.5 
" id="m74cd0c80dd" style="stroke:#000000;stroke-width:0.8;"/>
      </defs>
      <g>
       <use style="stroke:#000000;stroke-width:0.8;" x="144" xlink:href="#m74cd0c80dd" y="504"/>
      </g>
     </g>
     <g id="text_1">
      <!-- 0.000 -->
      <defs>
       <path d="M 31.78125 66.40625 
Q 24.171875 66.40625 20.328125 58.90625 
Q 16.5 51.421875 16.5 36.375 
Q 16.5 21.390625 20.328125 13.890625 
Q 24.171875 6.390625 31.78125 6.390625 
Q 39.453125 6.390625 43.28125 13.890625 
Q 47.125 21.390625 47.125 36.375 
Q 47.125 51.421875 43.28125 58.90625 
Q 39.453125 66.40625 31.78125 66.40625 
z
M 31.78125 74.21875 
Q 44.046875 74.21875 50.515625 64.515625 
Q 56.984375 54.828125 56.984375 36.375 
Q 56.984375 17.96875 50.515625 8.265625 
Q 44.046875 -1.421875 31.78125 -1.421875 
Q 19.53125 -1.421875 13.0625 8.265625 
Q 6.59375 17.96875 6.59375 36.375 
Q 6.59375 54.828125 13.0625 64.515625 
Q 19.53125 74.21875 31.78125 74.21875 
z
" id="DejaVuSans-48"/>
       <path d="M 10.6875 12.40625 
L 21 12.40625 
L 21 0 
L 10.6875 0 
z
" id="DejaVuSans-46"/>
      </defs>
      <g transform="translate(129.685937 518.598438)scale(0.1 -0.1)">
       <use xlink:href="#DejaVuSans-48"/>
       <use x="63.623047" xlink:href="#DejaVuSans-46"/>
       <use x="95.410156" xlink:href="#DejaVuSans-48"/>
       <use x="159.033203" xlink:href="#DejaVuSans-48"/>
       <use x="222.65625" xlink:href="#DejaVuSans-48"/>
      </g>
     </g>
    </g>
    <g id="xtick_2">
     <g id="line2d_2">
      <g>
       <use style="stroke:#000000;stroke-width:0.8;" x="292.8" xlink:href="#m74cd0c80dd" y="504"/>
      </g>
     </g>
     <g id="text_2">
      <!-- 0.001 -->
      <defs>
       <path d="M 12.40625 8.296875 
L 28.515625 8.296875 
L 28.515625 63.921875 
L 10.984375 60.40625 
L 10.984375 69.390625 
L 28.421875 72.90625 
L 38.28125 72.90625 
L 38.28125 8.296875 
L 54.390625 8.296875 
L 54.390625 0 
L 12.40625 0 
z
" id="DejaVuSans-49"/>
      </defs>
      <g transform="translate(278.485937 518.598438)scale(0.1 -0.1)">
       <use xlink:href="#DejaVuSans-48"/>
       <use x="63.623047" xlink:href="#DejaVuSans-46"/>
       <use x="95.410156" xlink:href="#DejaVuSans-48"/>
       <use x="159.033203" xlink:href="#DejaVuSans-48"/>
       <use x="222.65625" xlink:href="#DejaVuSans-49"/>
      </g>
     </g>
    </g>
    <g id="xtick_3">
     <g id="line2d_3">
      <g>
       <use style="stroke:#000000;stroke-width:0.8;" x="441.6" xlink:href="#m74cd0c80dd" y="504"/>
      </g>
     </g>
     <g id="text_3">
      <!-- 0.002 -->
      <defs>
       <path d="M 19.1875 8.296875 
L 53.609375 8.296875 
L 53.609375 0 
L 7.328125 0 
L 7.328125 8.296875 
Q 12.9375 14.109375 22.625 23.890625 
Q 32.328125 33.6875 34.8125 36.53125 
Q 39.546875 41.84375 41.421875 45.53125 
Q 43.3125 49.21875 43.3125 52.78125 
Q 43.3125 58.59375 39.234375 62.25 
Q 35.15625 65.921875 28.609375 65.921875 
Q 23.96875 65.921875 18.8125 64.3125 
Q 13.671875 62.703125 7.8125 59.421875 
L 7.8125 69.390625 
Q 13.765625 71.78125 18.9375 73 
Q 24.125 74.21875 28.421875 74.21875 
Q 39.75 74.21875 46.484375 68.546875 
Q 53.21875 62.890625 53.21875 53.421875 
Q 53.21875 48.921875 51.53125 44.890625 
Q 49.859375 40.875 45.40625 35.40625 
Q 44.1875 33.984375 37.640625 27.21875 
Q 31.109375 20.453125 19.1875 8.296875 
z
" id="DejaVuSans-50"/>
      </defs>
      <g transform="translate(427.285937 518.598438)scale(0.1 -0.1)">
       <use xlink:href="#DejaVuSans-48"/>
       <use x="63.623047" xlink:href="#DejaVuSans-46"/>
       <use x="95.410156" xlink:href="#DejaVuSans-48"/>
       <use x="159.033203" xlink:href="#DejaVuSans-48"/>
       <use x="222.65625" xlink:href="#DejaVuSans-50"/>
      </g>
     </g>
    </g>
    <g id="xtick_4">
     <g id="line2d_4">
      <g>
       <use style="stroke:#000000;stroke-width:0.8;" x="590.4" xlink:href="#m74cd0c80dd" y="504"/>
      </g>
     </g>
     <g id="text_4">
      <!-- 0.003 -->
      <defs>
       <path d="M 40.578125 39.3125 
Q 47.65625 37.796875 51.625 33 
Q 55.609375 28.21875 55.609375 21.1875 
Q 55.609375 10.40625 48.1875 4.484375 
Q 40.765625 -1.421875 27.09375 -1.421875 
Q 22.515625 -1.421875 17.65625 -0.515625 
Q 12.796875 0.390625 7.625 2.203125 
L 7.625 11.71875 
Q 11.71875 9.328125 16.59375 8.109375 
Q 21.484375 6.890625 26.8125 6.890625 
Q 36.078125 6.890625 40.9375 10.546875 
Q 45.796875 14.203125 45.796875 21.1875 
Q 45.796875 27.640625 41.28125 31.265625 
Q 36.765625 34.90625 28.71875 34.90625 
L 20.21875 34.90625 
L 20.21875 43.015625 
L 29.109375 43.015625 
Q 36.375 43.015625 40.234375 45.921875 
Q 44.09375 48.828125 44.09375 54.296875 
Q 44.09375 59.90625 40.109375 62.90625 
Q 36.140625 65.921875 28.71875 65.921875 
Q 24.65625 65.921875 20.015625 65.03125 
Q 15.375 64.15625 9.8125 62.3125 
L 9.8125 71.09375 
Q 15.4375 72.65625 20.34375 73.4375 
Q 25.25 74.21875 29.59375 74.21875 
Q 40.828125 74.21875 47.359375 69.109375 
Q 53.90625 64.015625 53.90625 55.328125 
Q 53.90625 49.265625 50.4375 45.09375 
Q 46.96875 40.921875 40.578125 39.3125 
z
" id="DejaVuSans-51"/>
      </defs>
      <g transform="translate(576.085937 518.598438)scale(0.1 -0.1)">
       <use xlink:href="#DejaVuSans-48"/>
       <use x="63.623047" xlink:href="#DejaVuSans-46"/>
       <use x="95.410156" xlink:href="#DejaVuSans-48"/>
       <use x="159.033203" xlink:href="#DejaVuSans-48"/>
       <use x="222.65625" xlink:href="#DejaVuSans-51"/>
      </g>
     </g>
    </g>
    <g id="xtick_5">
     <g id="line2d_5">
      <g>
       <use style="stroke:#000000;stroke-width:0.8;" x="739.2" xlink:href="#m74cd0c80dd" y="504"/>
      </g>
     </g>
     <g id="text_5">
      <!-- 0.004 -->
      <defs>
       <path d="M 37.796875 64.3125 
L 12.890625 25.390625 
L 37.796875 25.390625 
z
M 35.203125 72.90625 
L 47.609375 72.90625 
L 47.609375 25.390625 
L 58.015625 25.390625 
L 58.015625 17.1875 
L 47.609375 17.1875 
L 47.609375 0 
L 37.796875 0 
L 37.796875 17.1875 
L 4.890625 17.1875 
L 4.890625 26.703125 
z
" id="DejaVuSans-52"/>
      </defs>
      <g transform="translate(724.885937 518.598438)scale(0.1 -0.1)">
       <use xlink:href="#DejaVuSans-48"/>
       <use x="63.623047" xlink:href="#DejaVuSans-46"/>
       <use x="95.410156" xlink:href="#DejaVuSans-48"/>
       <use x="159.033203" xlink:href="#DejaVuSans-48"/>
       <use x="222.65625" xlink:href="#DejaVuSans-52"/>
      </g>
     </g>
    </g>
    <g id="xtick_6">
     <g id="line2d_6">
      <g>
       <use style="stroke:#000000;stroke-width:0.8;" x="888" xlink:href="#m74cd0c80dd" y="504"/>
      </g>
     </g>
     <g id="text_6">
      <!-- 0.005 -->
      <defs>
       <path d="M 10.796875 72.90625 
L 49.515625 72.90625 
L 49.515625 64.59375 
L 19.828125 64.59375 
L 19.828125 46.734375 
Q 21.96875 47.46875 24.109375 47.828125 
Q 26.265625 48.1875 28.421875 48.1875 
Q 40.625 48.1875 47.75 41.5 
Q 54.890625 34.8125 54.890625 23.390625 
Q 54.890625 11.625 47.5625 5.09375 
Q 40.234375 -1.421875 26.90625 -1.421875 
Q 22.3125 -1.421875 17.546875 -0.640625 
Q 12.796875 0.140625 7.71875 1.703125 
L 7.71875 11.625 
Q 12.109375 9.234375 16.796875 8.0625 
Q 21.484375 6.890625 26.703125 6.890625 
Q 35.15625 6.890625 40.078125 11.328125 
Q 45.015625 15.765625 45.015625 23.390625 
Q 45.015625 31 40.078125 35.4375 
Q 35.15625 39.890625 26.703125 39.890625 
Q 22.75 39.890625 18.8125 39.015625 
Q 14.890625 38.140625 10.796875 36.28125 
z
" id="DejaVuSans-53"/>
      </defs>
      <g transform="translate(873.685937 518.598438)scale(0.1 -0.1)">
       <use xlink:href="#DejaVuSans-48"/>
       <use x="63.623047" xlink:href="#DejaVuSans-46"/>
       <use x="95.410156" xlink:href="#DejaVuSans-48"/>
       <use x="159.033203" xlink:href="#DejaVuSans-48"/>
       <use x="222.65625" xlink:href="#DejaVuSans-53"/>
      </g>
     </g>
    </g>
    <g id="xtick_7">
     <g id="line2d_7">
      <g>
       <use style="stroke:#000000;stroke-width:0.8;" x="1036.8" xlink:href="#m74cd0c80dd" y="504"/>
      </g>
     </g>
     <g id="text_7">
      <!-- 0.006 -->
      <defs>
       <path d="M 33.015625 40.375 
Q 26.375 40.375 22.484375 35.828125 
Q 18.609375 31.296875 18.609375 23.390625 
Q 18.609375 15.53125 22.484375 10.953125 
Q 26.375 6.390625 33.015625 6.390625 
Q 39.65625 6.390625 43.53125 10.953125 
Q 47.40625 15.53125 47.40625 23.390625 
Q 47.40625 31.296875 43.53125 35.828125 
Q 39.65625 40.375 33.015625 40.375 
z
M 52.59375 71.296875 
L 52.59375 62.3125 
Q 48.875 64.0625 45.09375 64.984375 
Q 41.3125 65.921875 37.59375 65.921875 
Q 27.828125 65.921875 22.671875 59.328125 
Q 17.53125 52.734375 16.796875 39.40625 
Q 19.671875 43.65625 24.015625 45.921875 
Q 28.375 48.1875 33.59375 48.1875 
Q 44.578125 48.1875 50.953125 41.515625 
Q 57.328125 34.859375 57.328125 23.390625 
Q 57.328125 12.15625 50.6875 5.359375 
Q 44.046875 -1.421875 33.015625 -1.421875 
Q 20.359375 -1.421875 13.671875 8.265625 
Q 6.984375 17.96875 6.984375 36.375 
Q 6.984375 53.65625 15.1875 63.9375 
Q 23.390625 74.21875 37.203125 74.21875 
Q 40.921875 74.21875 44.703125 73.484375 
Q 48.484375 72.75 52.59375 71.296875 
z
" id="DejaVuSans-54"/>
      </defs>
      <g transform="translate(1022.485937 518.598438)scale(0.1 -0.1)">
       <use xlink:href="#DejaVuSans-48"/>
       <use x="63.623047" xlink:href="#DejaVuSans-46"/>
       <use x="95.410156" xlink:href="#DejaVuSans-48"/>
       <use x="159.033203" xlink:href="#DejaVuSans-48"/>
       <use x="222.65625" xlink:href="#DejaVuSans-54"/>
      </g>
     </g>
    </g>
    <g id="text_8">
     <!-- Number of TED events normalized by population -->
     <defs>
      <path d="M 9.8125 72.90625 
L 23.09375 72.90625 
L 55.421875 11.921875 
L 55.421875 72.90625 
L 64.984375 72.90625 
L 64.984375 0 
L 51.703125 0 
L 19.390625 60.984375 
L 19.390625 0 
L 9.8125 0 
z
" id="DejaVuSans-78"/>
      <path d="M 8.5 21.578125 
L 8.5 54.6875 
L 17.484375 54.6875 
L 17.484375 21.921875 
Q 17.484375 14.15625 20.5 10.265625 
Q 23.53125 6.390625 29.59375 6.390625 
Q 36.859375 6.390625 41.078125 11.03125 
Q 45.3125 15.671875 45.3125 23.6875 
L 45.3125 54.6875 
L 54.296875 54.6875 
L 54.296875 0 
L 45.3125 0 
L 45.3125 8.40625 
Q 42.046875 3.421875 37.71875 1 
Q 33.40625 -1.421875 27.6875 -1.421875 
Q 18.265625 -1.421875 13.375 4.4375 
Q 8.5 10.296875 8.5 21.578125 
z
M 31.109375 56 
z
" id="DejaVuSans-117"/>
      <path d="M 52 44.1875 
Q 55.375 50.25 60.0625 53.125 
Q 64.75 56 71.09375 56 
Q 79.640625 56 84.28125 50.015625 
Q 88.921875 44.046875 88.921875 33.015625 
L 88.921875 0 
L 79.890625 0 
L 79.890625 32.71875 
Q 79.890625 40.578125 77.09375 44.375 
Q 74.3125 48.1875 68.609375 48.1875 
Q 61.625 48.1875 57.5625 43.546875 
Q 53.515625 38.921875 53.515625 30.90625 
L 53.515625 0 
L 44.484375 0 
L 44.484375 32.71875 
Q 44.484375 40.625 41.703125 44.40625 
Q 38.921875 48.1875 33.109375 48.1875 
Q 26.21875 48.1875 22.15625 43.53125 
Q 18.109375 38.875 18.109375 30.90625 
L 18.109375 0 
L 9.078125 0 
L 9.078125 54.6875 
L 18.109375 54.6875 
L 18.109375 46.1875 
Q 21.1875 51.21875 25.484375 53.609375 
Q 29.78125 56 35.6875 56 
Q 41.65625 56 45.828125 52.96875 
Q 50 49.953125 52 44.1875 
z
" id="DejaVuSans-109"/>
      <path d="M 48.6875 27.296875 
Q 48.6875 37.203125 44.609375 42.84375 
Q 40.53125 48.484375 33.40625 48.484375 
Q 26.265625 48.484375 22.1875 42.84375 
Q 18.109375 37.203125 18.109375 27.296875 
Q 18.109375 17.390625 22.1875 11.75 
Q 26.265625 6.109375 33.40625 6.109375 
Q 40.53125 6.109375 44.609375 11.75 
Q 48.6875 17.390625 48.6875 27.296875 
z
M 18.109375 46.390625 
Q 20.953125 51.265625 25.265625 53.625 
Q 29.59375 56 35.59375 56 
Q 45.5625 56 51.78125 48.09375 
Q 58.015625 40.1875 58.015625 27.296875 
Q 58.015625 14.40625 51.78125 6.484375 
Q 45.5625 -1.421875 35.59375 -1.421875 
Q 29.59375 -1.421875 25.265625 0.953125 
Q 20.953125 3.328125 18.109375 8.203125 
L 18.109375 0 
L 9.078125 0 
L 9.078125 75.984375 
L 18.109375 75.984375 
z
" id="DejaVuSans-98"/>
      <path d="M 56.203125 29.59375 
L 56.203125 25.203125 
L 14.890625 25.203125 
Q 15.484375 15.921875 20.484375 11.0625 
Q 25.484375 6.203125 34.421875 6.203125 
Q 39.59375 6.203125 44.453125 7.46875 
Q 49.3125 8.734375 54.109375 11.28125 
L 54.109375 2.78125 
Q 49.265625 0.734375 44.1875 -0.34375 
Q 39.109375 -1.421875 33.890625 -1.421875 
Q 20.796875 -1.421875 13.15625 6.1875 
Q 5.515625 13.8125 5.515625 26.8125 
Q 5.515625 40.234375 12.765625 48.109375 
Q 20.015625 56 32.328125 56 
Q 43.359375 56 49.78125 48.890625 
Q 56.203125 41.796875 56.203125 29.59375 
z
M 47.21875 32.234375 
Q 47.125 39.59375 43.09375 43.984375 
Q 39.0625 48.390625 32.421875 48.390625 
Q 24.90625 48.390625 20.390625 44.140625 
Q 15.875 39.890625 15.1875 32.171875 
z
" id="DejaVuSans-101"/>
      <path d="M 41.109375 46.296875 
Q 39.59375 47.171875 37.8125 47.578125 
Q 36.03125 48 33.890625 48 
Q 26.265625 48 22.1875 43.046875 
Q 18.109375 38.09375 18.109375 28.8125 
L 18.109375 0 
L 9.078125 0 
L 9.078125 54.6875 
L 18.109375 54.6875 
L 18.109375 46.1875 
Q 20.953125 51.171875 25.484375 53.578125 
Q 30.03125 56 36.53125 56 
Q 37.453125 56 38.578125 55.875 
Q 39.703125 55.765625 41.0625 55.515625 
z
" id="DejaVuSans-114"/>
      <path id="DejaVuSans-32"/>
      <path d="M 30.609375 48.390625 
Q 23.390625 48.390625 19.1875 42.75 
Q 14.984375 37.109375 14.984375 27.296875 
Q 14.984375 17.484375 19.15625 11.84375 
Q 23.34375 6.203125 30.609375 6.203125 
Q 37.796875 6.203125 41.984375 11.859375 
Q 46.1875 17.53125 46.1875 27.296875 
Q 46.1875 37.015625 41.984375 42.703125 
Q 37.796875 48.390625 30.609375 48.390625 
z
M 30.609375 56 
Q 42.328125 56 49.015625 48.375 
Q 55.71875 40.765625 55.71875 27.296875 
Q 55.71875 13.875 49.015625 6.21875 
Q 42.328125 -1.421875 30.609375 -1.421875 
Q 18.84375 -1.421875 12.171875 6.21875 
Q 5.515625 13.875 5.515625 27.296875 
Q 5.515625 40.765625 12.171875 48.375 
Q 18.84375 56 30.609375 56 
z
" id="DejaVuSans-111"/>
      <path d="M 37.109375 75.984375 
L 37.109375 68.5 
L 28.515625 68.5 
Q 23.6875 68.5 21.796875 66.546875 
Q 19.921875 64.59375 19.921875 59.515625 
L 19.921875 54.6875 
L 34.71875 54.6875 
L 34.71875 47.703125 
L 19.921875 47.703125 
L 19.921875 0 
L 10.890625 0 
L 10.890625 47.703125 
L 2.296875 47.703125 
L 2.296875 54.6875 
L 10.890625 54.6875 
L 10.890625 58.5 
Q 10.890625 67.625 15.140625 71.796875 
Q 19.390625 75.984375 28.609375 75.984375 
z
" id="DejaVuSans-102"/>
      <path d="M -0.296875 72.90625 
L 61.375 72.90625 
L 61.375 64.59375 
L 35.5 64.59375 
L 35.5 0 
L 25.59375 0 
L 25.59375 64.59375 
L -0.296875 64.59375 
z
" id="DejaVuSans-84"/>
      <path d="M 9.8125 72.90625 
L 55.90625 72.90625 
L 55.90625 64.59375 
L 19.671875 64.59375 
L 19.671875 43.015625 
L 54.390625 43.015625 
L 54.390625 34.71875 
L 19.671875 34.71875 
L 19.671875 8.296875 
L 56.78125 8.296875 
L 56.78125 0 
L 9.8125 0 
z
" id="DejaVuSans-69"/>
      <path d="M 19.671875 64.796875 
L 19.671875 8.109375 
L 31.59375 8.109375 
Q 46.6875 8.109375 53.6875 14.9375 
Q 60.6875 21.78125 60.6875 36.53125 
Q 60.6875 51.171875 53.6875 57.984375 
Q 46.6875 64.796875 31.59375 64.796875 
z
M 9.8125 72.90625 
L 30.078125 72.90625 
Q 51.265625 72.90625 61.171875 64.09375 
Q 71.09375 55.28125 71.09375 36.53125 
Q 71.09375 17.671875 61.125 8.828125 
Q 51.171875 0 30.078125 0 
L 9.8125 0 
z
" id="DejaVuSans-68"/>
      <path d="M 2.984375 54.6875 
L 12.5 54.6875 
L 29.59375 8.796875 
L 46.6875 54.6875 
L 56.203125 54.6875 
L 35.6875 0 
L 23.484375 0 
z
" id="DejaVuSans-118"/>
      <path d="M 54.890625 33.015625 
L 54.890625 0 
L 45.90625 0 
L 45.90625 32.71875 
Q 45.90625 40.484375 42.875 44.328125 
Q 39.84375 48.1875 33.796875 48.1875 
Q 26.515625 48.1875 22.3125 43.546875 
Q 18.109375 38.921875 18.109375 30.90625 
L 18.109375 0 
L 9.078125 0 
L 9.078125 54.6875 
L 18.109375 54.6875 
L 18.109375 46.1875 
Q 21.34375 51.125 25.703125 53.5625 
Q 30.078125 56 35.796875 56 
Q 45.21875 56 50.046875 50.171875 
Q 54.890625 44.34375 54.890625 33.015625 
z
" id="DejaVuSans-110"/>
      <path d="M 18.3125 70.21875 
L 18.3125 54.6875 
L 36.8125 54.6875 
L 36.8125 47.703125 
L 18.3125 47.703125 
L 18.3125 18.015625 
Q 18.3125 11.328125 20.140625 9.421875 
Q 21.96875 7.515625 27.59375 7.515625 
L 36.8125 7.515625 
L 36.8125 0 
L 27.59375 0 
Q 17.1875 0 13.234375 3.875 
Q 9.28125 7.765625 9.28125 18.015625 
L 9.28125 47.703125 
L 2.6875 47.703125 
L 2.6875 54.6875 
L 9.28125 54.6875 
L 9.28125 70.21875 
z
" id="DejaVuSans-116"/>
      <path d="M 44.28125 53.078125 
L 44.28125 44.578125 
Q 40.484375 46.53125 36.375 47.5 
Q 32.28125 48.484375 27.875 48.484375 
Q 21.1875 48.484375 17.84375 46.4375 
Q 14.5 44.390625 14.5 40.28125 
Q 14.5 37.15625 16.890625 35.375 
Q 19.28125 33.59375 26.515625 31.984375 
L 29.59375 31.296875 
Q 39.15625 29.25 43.1875 25.515625 
Q 47.21875 21.78125 47.21875 15.09375 
Q 47.21875 7.46875 41.1875 3.015625 
Q 35.15625 -1.421875 24.609375 -1.421875 
Q 20.21875 -1.421875 15.453125 -0.5625 
Q 10.6875 0.296875 5.421875 2 
L 5.421875 11.28125 
Q 10.40625 8.6875 15.234375 7.390625 
Q 20.0625 6.109375 24.8125 6.109375 
Q 31.15625 6.109375 34.5625 8.28125 
Q 37.984375 10.453125 37.984375 14.40625 
Q 37.984375 18.0625 35.515625 20.015625 
Q 33.0625 21.96875 24.703125 23.78125 
L 21.578125 24.515625 
Q 13.234375 26.265625 9.515625 29.90625 
Q 5.8125 33.546875 5.8125 39.890625 
Q 5.8125 47.609375 11.28125 51.796875 
Q 16.75 56 26.8125 56 
Q 31.78125 56 36.171875 55.265625 
Q 40.578125 54.546875 44.28125 53.078125 
z
" id="DejaVuSans-115"/>
      <path d="M 34.28125 27.484375 
Q 23.390625 27.484375 19.1875 25 
Q 14.984375 22.515625 14.984375 16.5 
Q 14.984375 11.71875 18.140625 8.90625 
Q 21.296875 6.109375 26.703125 6.109375 
Q 34.1875 6.109375 38.703125 11.40625 
Q 43.21875 16.703125 43.21875 25.484375 
L 43.21875 27.484375 
z
M 52.203125 31.203125 
L 52.203125 0 
L 43.21875 0 
L 43.21875 8.296875 
Q 40.140625 3.328125 35.546875 0.953125 
Q 30.953125 -1.421875 24.3125 -1.421875 
Q 15.921875 -1.421875 10.953125 3.296875 
Q 6 8.015625 6 15.921875 
Q 6 25.140625 12.171875 29.828125 
Q 18.359375 34.515625 30.609375 34.515625 
L 43.21875 34.515625 
L 43.21875 35.40625 
Q 43.21875 41.609375 39.140625 45 
Q 35.0625 48.390625 27.6875 48.390625 
Q 23 48.390625 18.546875 47.265625 
Q 14.109375 46.140625 10.015625 43.890625 
L 10.015625 52.203125 
Q 14.9375 54.109375 19.578125 55.046875 
Q 24.21875 56 28.609375 56 
Q 40.484375 56 46.34375 49.84375 
Q 52.203125 43.703125 52.203125 31.203125 
z
" id="DejaVuSans-97"/>
      <path d="M 9.421875 75.984375 
L 18.40625 75.984375 
L 18.40625 0 
L 9.421875 0 
z
" id="DejaVuSans-108"/>
      <path d="M 9.421875 54.6875 
L 18.40625 54.6875 
L 18.40625 0 
L 9.421875 0 
z
M 9.421875 75.984375 
L 18.40625 75.984375 
L 18.40625 64.59375 
L 9.421875 64.59375 
z
" id="DejaVuSans-105"/>
      <path d="M 5.515625 54.6875 
L 48.1875 54.6875 
L 48.1875 46.484375 
L 14.40625 7.171875 
L 48.1875 7.171875 
L 48.1875 0 
L 4.296875 0 
L 4.296875 8.203125 
L 38.09375 47.515625 
L 5.515625 47.515625 
z
" id="DejaVuSans-122"/>
      <path d="M 45.40625 46.390625 
L 45.40625 75.984375 
L 54.390625 75.984375 
L 54.390625 0 
L 45.40625 0 
L 45.40625 8.203125 
Q 42.578125 3.328125 38.25 0.953125 
Q 33.9375 -1.421875 27.875 -1.421875 
Q 17.96875 -1.421875 11.734375 6.484375 
Q 5.515625 14.40625 5.515625 27.296875 
Q 5.515625 40.1875 11.734375 48.09375 
Q 17.96875 56 27.875 56 
Q 33.9375 56 38.25 53.625 
Q 42.578125 51.265625 45.40625 46.390625 
z
M 14.796875 27.296875 
Q 14.796875 17.390625 18.875 11.75 
Q 22.953125 6.109375 30.078125 6.109375 
Q 37.203125 6.109375 41.296875 11.75 
Q 45.40625 17.390625 45.40625 27.296875 
Q 45.40625 37.203125 41.296875 42.84375 
Q 37.203125 48.484375 30.078125 48.484375 
Q 22.953125 48.484375 18.875 42.84375 
Q 14.796875 37.203125 14.796875 27.296875 
z
" id="DejaVuSans-100"/>
      <path d="M 32.171875 -5.078125 
Q 28.375 -14.84375 24.75 -17.8125 
Q 21.140625 -20.796875 15.09375 -20.796875 
L 7.90625 -20.796875 
L 7.90625 -13.28125 
L 13.1875 -13.28125 
Q 16.890625 -13.28125 18.9375 -11.515625 
Q 21 -9.765625 23.484375 -3.21875 
L 25.09375 0.875 
L 2.984375 54.6875 
L 12.5 54.6875 
L 29.59375 11.921875 
L 46.6875 54.6875 
L 56.203125 54.6875 
z
" id="DejaVuSans-121"/>
      <path d="M 18.109375 8.203125 
L 18.109375 -20.796875 
L 9.078125 -20.796875 
L 9.078125 54.6875 
L 18.109375 54.6875 
L 18.109375 46.390625 
Q 20.953125 51.265625 25.265625 53.625 
Q 29.59375 56 35.59375 56 
Q 45.5625 56 51.78125 48.09375 
Q 58.015625 40.1875 58.015625 27.296875 
Q 58.015625 14.40625 51.78125 6.484375 
Q 45.5625 -1.421875 35.59375 -1.421875 
Q 29.59375 -1.421875 25.265625 0.953125 
Q 20.953125 3.328125 18.109375 8.203125 
z
M 48.6875 27.296875 
Q 48.6875 37.203125 44.609375 42.84375 
Q 40.53125 48.484375 33.40625 48.484375 
Q 26.265625 48.484375 22.1875 42.84375 
Q 18.109375 37.203125 18.109375 27.296875 
Q 18.109375 17.390625 22.1875 11.75 
Q 26.265625 6.109375 33.40625 6.109375 
Q 40.53125 6.109375 44.609375 11.75 
Q 48.6875 17.390625 48.6875 27.296875 
z
" id="DejaVuSans-112"/>
     </defs>
     <g transform="translate(371.027812 538.355312)scale(0.18 -0.18)">
      <use xlink:href="#DejaVuSans-78"/>
      <use x="74.804688" xlink:href="#DejaVuSans-117"/>
      <use x="138.183594" xlink:href="#DejaVuSans-109"/>
      <use x="235.595703" xlink:href="#DejaVuSans-98"/>
      <use x="299.072266" xlink:href="#DejaVuSans-101"/>
      <use x="360.595703" xlink:href="#DejaVuSans-114"/>
      <use x="401.708984" xlink:href="#DejaVuSans-32"/>
      <use x="433.496094" xlink:href="#DejaVuSans-111"/>
      <use x="494.677734" xlink:href="#DejaVuSans-102"/>
      <use x="529.882812" xlink:href="#DejaVuSans-32"/>
      <use x="561.669922" xlink:href="#DejaVuSans-84"/>
      <use x="622.753906" xlink:href="#DejaVuSans-69"/>
      <use x="685.9375" xlink:href="#DejaVuSans-68"/>
      <use x="762.939453" xlink:href="#DejaVuSans-32"/>
      <use x="794.726562" xlink:href="#DejaVuSans-101"/>
      <use x="856.25" xlink:href="#DejaVuSans-118"/>
      <use x="915.429688" xlink:href="#DejaVuSans-101"/>
      <use x="976.953125" xlink:href="#DejaVuSans-110"/>
      <use x="1040.332031" xlink:href="#DejaVuSans-116"/>
      <use x="1079.541016" xlink:href="#DejaVuSans-115"/>
      <use x="1131.640625" xlink:href="#DejaVuSans-32"/>
      <use x="1163.427734" xlink:href="#DejaVuSans-110"/>
      <use x="1226.806641" xlink:href="#DejaVuSans-111"/>
      <use x="1287.988281" xlink:href="#DejaVuSans-114"/>
      <use x="1327.351562" xlink:href="#DejaVuSans-109"/>
      <use x="1424.763672" xlink:href="#DejaVuSans-97"/>
      <use x="1486.042969" xlink:href="#DejaVuSans-108"/>
      <use x="1513.826172" xlink:href="#DejaVuSans-105"/>
      <use x="1541.609375" xlink:href="#DejaVuSans-122"/>
      <use x="1594.099609" xlink:href="#DejaVuSans-101"/>
      <use x="1655.623047" xlink:href="#DejaVuSans-100"/>
      <use x="1719.099609" xlink:href="#DejaVuSans-32"/>
      <use x="1750.886719" xlink:href="#DejaVuSans-98"/>
      <use x="1814.363281" xlink:href="#DejaVuSans-121"/>
      <use x="1873.542969" xlink:href="#DejaVuSans-32"/>
      <use x="1905.330078" xlink:href="#DejaVuSans-112"/>
      <use x="1968.806641" xlink:href="#DejaVuSans-111"/>
      <use x="2029.988281" xlink:href="#DejaVuSans-112"/>
      <use x="2093.464844" xlink:href="#DejaVuSans-117"/>
      <use x="2156.84375" xlink:href="#DejaVuSans-108"/>
      <use x="2184.626953" xlink:href="#DejaVuSans-97"/>
      <use x="2245.90625" xlink:href="#DejaVuSans-116"/>
      <use x="2285.115234" xlink:href="#DejaVuSans-105"/>
      <use x="2312.898438" xlink:href="#DejaVuSans-111"/>
      <use x="2374.080078" xlink:href="#DejaVuSans-110"/>
     </g>
    </g>
   </g>
   <g id="matplotlib.axis_2">
    <g id="ytick_1">
     <g id="line2d_8">
      <defs>
       <path d="M 0 0 
L -3.5 0 
" id="m3f3209295f" style="stroke:#000000;stroke-width:0.8;"/>
      </defs>
      <g>
       <use style="stroke:#000000;stroke-width:0.8;" x="144" xlink:href="#m3f3209295f" y="484.232727"/>
      </g>
     </g>
     <g id="text_9">
      <!-- 0 -->
      <g transform="translate(130.6375 488.031946)scale(0.1 -0.1)">
       <use xlink:href="#DejaVuSans-48"/>
      </g>
     </g>
    </g>
    <g id="ytick_2">
     <g id="line2d_9">
      <g>
       <use style="stroke:#000000;stroke-width:0.8;" x="144" xlink:href="#m3f3209295f" y="427.044093"/>
      </g>
     </g>
     <g id="text_10">
      <!-- 1 -->
      <g transform="translate(130.6375 430.843312)scale(0.1 -0.1)">
       <use xlink:href="#DejaVuSans-49"/>
      </g>
     </g>
    </g>
    <g id="ytick_3">
     <g id="line2d_10">
      <g>
       <use style="stroke:#000000;stroke-width:0.8;" x="144" xlink:href="#m3f3209295f" y="369.855459"/>
      </g>
     </g>
     <g id="text_11">
      <!-- 2 -->
      <g transform="translate(130.6375 373.654678)scale(0.1 -0.1)">
       <use xlink:href="#DejaVuSans-50"/>
      </g>
     </g>
    </g>
    <g id="ytick_4">
     <g id="line2d_11">
      <g>
       <use style="stroke:#000000;stroke-width:0.8;" x="144" xlink:href="#m3f3209295f" y="312.666826"/>
      </g>
     </g>
     <g id="text_12">
      <!-- 3 -->
      <g transform="translate(130.6375 316.466044)scale(0.1 -0.1)">
       <use xlink:href="#DejaVuSans-51"/>
      </g>
     </g>
    </g>
    <g id="ytick_5">
     <g id="line2d_12">
      <g>
       <use style="stroke:#000000;stroke-width:0.8;" x="144" xlink:href="#m3f3209295f" y="255.478192"/>
      </g>
     </g>
     <g id="text_13">
      <!-- 4 -->
      <g transform="translate(130.6375 259.27741)scale(0.1 -0.1)">
       <use xlink:href="#DejaVuSans-52"/>
      </g>
     </g>
    </g>
    <g id="ytick_6">
     <g id="line2d_13">
      <g>
       <use style="stroke:#000000;stroke-width:0.8;" x="144" xlink:href="#m3f3209295f" y="198.289558"/>
      </g>
     </g>
     <g id="text_14">
      <!-- 5 -->
      <g transform="translate(130.6375 202.088776)scale(0.1 -0.1)">
       <use xlink:href="#DejaVuSans-53"/>
      </g>
     </g>
    </g>
    <g id="ytick_7">
     <g id="line2d_14">
      <g>
       <use style="stroke:#000000;stroke-width:0.8;" x="144" xlink:href="#m3f3209295f" y="141.100924"/>
      </g>
     </g>
     <g id="text_15">
      <!-- 6 -->
      <g transform="translate(130.6375 144.900142)scale(0.1 -0.1)">
       <use xlink:href="#DejaVuSans-54"/>
      </g>
     </g>
    </g>
    <g id="ytick_8">
     <g id="line2d_15">
      <g>
       <use style="stroke:#000000;stroke-width:0.8;" x="144" xlink:href="#m3f3209295f" y="83.91229"/>
      </g>
     </g>
     <g id="text_16">
      <!-- 7 -->
      <defs>
       <path d="M 8.203125 72.90625 
L 55.078125 72.90625 
L 55.078125 68.703125 
L 28.609375 0 
L 18.3125 0 
L 43.21875 64.59375 
L 8.203125 64.59375 
z
" id="DejaVuSans-55"/>
      </defs>
      <g transform="translate(130.6375 87.711509)scale(0.1 -0.1)">
       <use xlink:href="#DejaVuSans-55"/>
      </g>
     </g>
    </g>
    <g id="text_17">
     <!-- Total number of COVID-19 cases -->
     <defs>
      <path d="M 64.40625 67.28125 
L 64.40625 56.890625 
Q 59.421875 61.53125 53.78125 63.8125 
Q 48.140625 66.109375 41.796875 66.109375 
Q 29.296875 66.109375 22.65625 58.46875 
Q 16.015625 50.828125 16.015625 36.375 
Q 16.015625 21.96875 22.65625 14.328125 
Q 29.296875 6.6875 41.796875 6.6875 
Q 48.140625 6.6875 53.78125 8.984375 
Q 59.421875 11.28125 64.40625 15.921875 
L 64.40625 5.609375 
Q 59.234375 2.09375 53.4375 0.328125 
Q 47.65625 -1.421875 41.21875 -1.421875 
Q 24.65625 -1.421875 15.125 8.703125 
Q 5.609375 18.84375 5.609375 36.375 
Q 5.609375 53.953125 15.125 64.078125 
Q 24.65625 74.21875 41.21875 74.21875 
Q 47.75 74.21875 53.53125 72.484375 
Q 59.328125 70.75 64.40625 67.28125 
z
" id="DejaVuSans-67"/>
      <path d="M 39.40625 66.21875 
Q 28.65625 66.21875 22.328125 58.203125 
Q 16.015625 50.203125 16.015625 36.375 
Q 16.015625 22.609375 22.328125 14.59375 
Q 28.65625 6.59375 39.40625 6.59375 
Q 50.140625 6.59375 56.421875 14.59375 
Q 62.703125 22.609375 62.703125 36.375 
Q 62.703125 50.203125 56.421875 58.203125 
Q 50.140625 66.21875 39.40625 66.21875 
z
M 39.40625 74.21875 
Q 54.734375 74.21875 63.90625 63.9375 
Q 73.09375 53.65625 73.09375 36.375 
Q 73.09375 19.140625 63.90625 8.859375 
Q 54.734375 -1.421875 39.40625 -1.421875 
Q 24.03125 -1.421875 14.8125 8.828125 
Q 5.609375 19.09375 5.609375 36.375 
Q 5.609375 53.65625 14.8125 63.9375 
Q 24.03125 74.21875 39.40625 74.21875 
z
" id="DejaVuSans-79"/>
      <path d="M 28.609375 0 
L 0.78125 72.90625 
L 11.078125 72.90625 
L 34.1875 11.53125 
L 57.328125 72.90625 
L 67.578125 72.90625 
L 39.796875 0 
z
" id="DejaVuSans-86"/>
      <path d="M 9.8125 72.90625 
L 19.671875 72.90625 
L 19.671875 0 
L 9.8125 0 
z
" id="DejaVuSans-73"/>
      <path d="M 4.890625 31.390625 
L 31.203125 31.390625 
L 31.203125 23.390625 
L 4.890625 23.390625 
z
" id="DejaVuSans-45"/>
      <path d="M 10.984375 1.515625 
L 10.984375 10.5 
Q 14.703125 8.734375 18.5 7.8125 
Q 22.3125 6.890625 25.984375 6.890625 
Q 35.75 6.890625 40.890625 13.453125 
Q 46.046875 20.015625 46.78125 33.40625 
Q 43.953125 29.203125 39.59375 26.953125 
Q 35.25 24.703125 29.984375 24.703125 
Q 19.046875 24.703125 12.671875 31.3125 
Q 6.296875 37.9375 6.296875 49.421875 
Q 6.296875 60.640625 12.9375 67.421875 
Q 19.578125 74.21875 30.609375 74.21875 
Q 43.265625 74.21875 49.921875 64.515625 
Q 56.59375 54.828125 56.59375 36.375 
Q 56.59375 19.140625 48.40625 8.859375 
Q 40.234375 -1.421875 26.421875 -1.421875 
Q 22.703125 -1.421875 18.890625 -0.6875 
Q 15.09375 0.046875 10.984375 1.515625 
z
M 30.609375 32.421875 
Q 37.25 32.421875 41.125 36.953125 
Q 45.015625 41.5 45.015625 49.421875 
Q 45.015625 57.28125 41.125 61.84375 
Q 37.25 66.40625 30.609375 66.40625 
Q 23.96875 66.40625 20.09375 61.84375 
Q 16.21875 57.28125 16.21875 49.421875 
Q 16.21875 41.5 20.09375 36.953125 
Q 23.96875 32.421875 30.609375 32.421875 
z
" id="DejaVuSans-57"/>
      <path d="M 48.78125 52.59375 
L 48.78125 44.1875 
Q 44.96875 46.296875 41.140625 47.34375 
Q 37.3125 48.390625 33.40625 48.390625 
Q 24.65625 48.390625 19.8125 42.84375 
Q 14.984375 37.3125 14.984375 27.296875 
Q 14.984375 17.28125 19.8125 11.734375 
Q 24.65625 6.203125 33.40625 6.203125 
Q 37.3125 6.203125 41.140625 7.25 
Q 44.96875 8.296875 48.78125 10.40625 
L 48.78125 2.09375 
Q 45.015625 0.34375 40.984375 -0.53125 
Q 36.96875 -1.421875 32.421875 -1.421875 
Q 20.0625 -1.421875 12.78125 6.34375 
Q 5.515625 14.109375 5.515625 27.296875 
Q 5.515625 40.671875 12.859375 48.328125 
Q 20.21875 56 33.015625 56 
Q 37.15625 56 41.109375 55.140625 
Q 45.0625 54.296875 48.78125 52.59375 
z
" id="DejaVuSans-99"/>
     </defs>
     <g transform="translate(122.894062 431.850937)rotate(-90)scale(0.18 -0.18)">
      <use xlink:href="#DejaVuSans-84"/>
      <use x="44.083984" xlink:href="#DejaVuSans-111"/>
      <use x="105.265625" xlink:href="#DejaVuSans-116"/>
      <use x="144.474609" xlink:href="#DejaVuSans-97"/>
      <use x="205.753906" xlink:href="#DejaVuSans-108"/>
      <use x="233.537109" xlink:href="#DejaVuSans-32"/>
      <use x="265.324219" xlink:href="#DejaVuSans-110"/>
      <use x="328.703125" xlink:href="#DejaVuSans-117"/>
      <use x="392.082031" xlink:href="#DejaVuSans-109"/>
      <use x="489.494141" xlink:href="#DejaVuSans-98"/>
      <use x="552.970703" xlink:href="#DejaVuSans-101"/>
      <use x="614.494141" xlink:href="#DejaVuSans-114"/>
      <use x="655.607422" xlink:href="#DejaVuSans-32"/>
      <use x="687.394531" xlink:href="#DejaVuSans-111"/>
      <use x="748.576172" xlink:href="#DejaVuSans-102"/>
      <use x="783.78125" xlink:href="#DejaVuSans-32"/>
      <use x="815.568359" xlink:href="#DejaVuSans-67"/>
      <use x="885.392578" xlink:href="#DejaVuSans-79"/>
      <use x="962.353516" xlink:href="#DejaVuSans-86"/>
      <use x="1030.761719" xlink:href="#DejaVuSans-73"/>
      <use x="1060.253906" xlink:href="#DejaVuSans-68"/>
      <use x="1137.255859" xlink:href="#DejaVuSans-45"/>
      <use x="1173.339844" xlink:href="#DejaVuSans-49"/>
      <use x="1236.962891" xlink:href="#DejaVuSans-57"/>
      <use x="1300.585938" xlink:href="#DejaVuSans-32"/>
      <use x="1332.373047" xlink:href="#DejaVuSans-99"/>
      <use x="1387.353516" xlink:href="#DejaVuSans-97"/>
      <use x="1448.632812" xlink:href="#DejaVuSans-115"/>
      <use x="1500.732422" xlink:href="#DejaVuSans-101"/>
      <use x="1562.255859" xlink:href="#DejaVuSans-115"/>
     </g>
    </g>
   </g>
   <g id="line2d_16">
    <path clip-path="url(#p5257c3e2b2)" d="M 144.01128 247.849594 
L 152.978999 247.092783 
L 161.946719 246.335973 
L 170.914438 245.579163 
L 179.882157 244.822352 
L 188.849876 244.065542 
L 197.817595 243.308732 
L 206.785315 242.551921 
L 215.753034 241.795111 
L 224.720753 241.0383 
L 233.688472 240.28149 
L 242.656191 239.52468 
L 251.623911 238.767869 
L 260.59163 238.011059 
L 269.559349 237.254249 
L 278.527068 236.497438 
L 287.494787 235.740628 
L 296.462507 234.983818 
L 305.430226 234.227007 
L 314.397945 233.470197 
L 323.365664 232.713387 
L 332.333383 231.956576 
L 341.301103 231.199766 
L 350.268822 230.442955 
L 359.236541 229.686145 
L 368.20426 228.929335 
L 377.171979 228.172524 
L 386.139699 227.415714 
L 395.107418 226.658904 
L 404.075137 225.902093 
L 413.042856 225.145283 
L 422.010575 224.388473 
L 430.978295 223.631662 
L 439.946014 222.874852 
L 448.913733 222.118042 
L 457.881452 221.361231 
L 466.849171 220.604421 
L 475.81689 219.84761 
L 484.78461 219.0908 
L 493.752329 218.33399 
L 502.720048 217.577179 
L 511.687767 216.820369 
L 520.655486 216.063559 
L 529.623206 215.306748 
L 538.590925 214.549938 
L 547.558644 213.793128 
L 556.526363 213.036317 
L 565.494082 212.279507 
L 574.461802 211.522697 
L 583.429521 210.765886 
L 592.39724 210.009076 
L 601.364959 209.252265 
L 610.332678 208.495455 
L 619.300398 207.738645 
L 628.268117 206.981834 
L 637.235836 206.225024 
L 646.203555 205.468214 
L 655.171274 204.711403 
L 664.138994 203.954593 
L 673.106713 203.197783 
L 682.074432 202.440972 
L 691.042151 201.684162 
L 700.00987 200.927352 
L 708.97759 200.170541 
L 717.945309 199.413731 
L 726.913028 198.656921 
L 735.880747 197.90011 
L 744.848466 197.1433 
L 753.816186 196.386489 
L 762.783905 195.629679 
L 771.751624 194.872869 
L 780.719343 194.116058 
L 789.687062 193.359248 
L 798.654782 192.602438 
L 807.622501 191.845627 
L 816.59022 191.088817 
L 825.557939 190.332007 
L 834.525658 189.575196 
L 843.493378 188.818386 
L 852.461097 188.061576 
L 861.428816 187.304765 
L 870.396535 186.547955 
L 879.364254 185.791144 
L 888.331974 185.034334 
L 897.299693 184.277524 
L 906.267412 183.520713 
L 915.235131 182.763903 
L 924.20285 182.007093 
L 933.17057 181.250282 
L 942.138289 180.493472 
L 951.106008 179.736662 
L 960.073727 178.979851 
L 969.041446 178.223041 
L 978.009166 177.466231 
L 986.976885 176.70942 
L 995.944604 175.95261 
L 1004.912323 175.195799 
L 1013.880042 174.438989 
L 1022.847762 173.682179 
L 1031.815481 172.925368 
" style="fill:none;stroke:#008000;stroke-linecap:square;stroke-width:2.25;"/>
   </g>
   <g id="patch_3">
    <path d="M 144 504 
L 144 69.12 
" style="fill:none;stroke:#000000;stroke-linecap:square;stroke-linejoin:miter;stroke-width:3;"/>
   </g>
   <g id="patch_4">
    <path d="M 144 504 
L 1036.8 504 
" style="fill:none;stroke:#000000;stroke-linecap:square;stroke-linejoin:miter;stroke-width:3;"/>
   </g>
  </g>
 </g>
 <defs>
  <clipPath id="p5257c3e2b2">
   <rect height="434.88" width="892.8" x="144" y="69.12"/>
  </clipPath>
 </defs>
</svg>
