<?xml version="1.0" encoding="utf-8" standalone="no"?>
<!DOCTYPE svg PUBLIC "-//W3C//DTD SVG 1.1//EN"
  "http://www.w3.org/Graphics/SVG/1.1/DTD/svg11.dtd">
<!-- Created with matplotlib (https://matplotlib.org/) -->
<svg height="576pt" version="1.1" viewBox="0 0 1152 576" width="1152pt" xmlns="http://www.w3.org/2000/svg" xmlns:xlink="http://www.w3.org/1999/xlink">
 <defs>
  <style type="text/css">
*{stroke-linecap:butt;stroke-linejoin:round;}
  </style>
 </defs>
 <g id="figure_1">
  <g id="patch_1">
   <path d="M 0 576 
L 1152 576 
L 1152 0 
L 0 0 
z
" style="fill:#ffffff;"/>
  </g>
  <g id="axes_1">
   <g id="patch_2">
    <path d="M 144 504 
L 1036.8 504 
L 1036.8 69.12 
L 144 69.12 
z
" style="fill:#ffffff;"/>
   </g>
   <g id="PathCollection_1">
    <defs>
     <path d="M -3 0 
L 3 0 
M 0 3 
L 0 -3 
" id="m5a399c40ae" style="stroke:#000000;stroke-opacity:0.8;stroke-width:1.5;"/>
    </defs>
    <g clip-path="url(#pc9430c6107)">
     <use style="fill-opacity:0.8;stroke:#000000;stroke-opacity:0.8;stroke-width:1.5;" x="151.508143" xlink:href="#m5a399c40ae" y="443.146723"/>
     <use style="fill-opacity:0.8;stroke:#000000;stroke-opacity:0.8;stroke-width:1.5;" x="1036.8" xlink:href="#m5a399c40ae" y="88.887273"/>
     <use style="fill-opacity:0.8;stroke:#000000;stroke-opacity:0.8;stroke-width:1.5;" x="150.561962" xlink:href="#m5a399c40ae" y="109.803603"/>
     <use style="fill-opacity:0.8;stroke:#000000;stroke-opacity:0.8;stroke-width:1.5;" x="178.304966" xlink:href="#m5a399c40ae" y="443.018207"/>
     <use style="fill-opacity:0.8;stroke:#000000;stroke-opacity:0.8;stroke-width:1.5;" x="292.169474" xlink:href="#m5a399c40ae" y="429.994799"/>
     <use style="fill-opacity:0.8;stroke:#000000;stroke-opacity:0.8;stroke-width:1.5;" x="902.2707" xlink:href="#m5a399c40ae" y="383.103222"/>
     <use style="fill-opacity:0.8;stroke:#000000;stroke-opacity:0.8;stroke-width:1.5;" x="179.733375" xlink:href="#m5a399c40ae" y="216.301701"/>
     <use style="fill-opacity:0.8;stroke:#000000;stroke-opacity:0.8;stroke-width:1.5;" x="151.710753" xlink:href="#m5a399c40ae" y="430.82385"/>
     <use style="fill-opacity:0.8;stroke:#000000;stroke-opacity:0.8;stroke-width:1.5;" x="342.2075" xlink:href="#m5a399c40ae" y="406.570218"/>
     <use style="fill-opacity:0.8;stroke:#000000;stroke-opacity:0.8;stroke-width:1.5;" x="422.421446" xlink:href="#m5a399c40ae" y="427.473548"/>
     <use style="fill-opacity:0.8;stroke:#000000;stroke-opacity:0.8;stroke-width:1.5;" x="179.996786" xlink:href="#m5a399c40ae" y="409.480169"/>
     <use style="fill-opacity:0.8;stroke:#000000;stroke-opacity:0.8;stroke-width:1.5;" x="180.109066" xlink:href="#m5a399c40ae" y="431.685424"/>
     <use style="fill-opacity:0.8;stroke:#000000;stroke-opacity:0.8;stroke-width:1.5;" x="383.770737" xlink:href="#m5a399c40ae" y="403.1515"/>
     <use style="fill-opacity:0.8;stroke:#000000;stroke-opacity:0.8;stroke-width:1.5;" x="154.615813" xlink:href="#m5a399c40ae" y="432.125469"/>
     <use style="fill-opacity:0.8;stroke:#000000;stroke-opacity:0.8;stroke-width:1.5;" x="730.75429" xlink:href="#m5a399c40ae" y="438.239828"/>
     <use style="fill-opacity:0.8;stroke:#000000;stroke-opacity:0.8;stroke-width:1.5;" x="173.772215" xlink:href="#m5a399c40ae" y="446.992967"/>
     <use style="fill-opacity:0.8;stroke:#000000;stroke-opacity:0.8;stroke-width:1.5;" x="589.579695" xlink:href="#m5a399c40ae" y="445.954465"/>
     <use style="fill-opacity:0.8;stroke:#000000;stroke-opacity:0.8;stroke-width:1.5;" x="305.627033" xlink:href="#m5a399c40ae" y="438.288372"/>
     <use style="fill-opacity:0.8;stroke:#000000;stroke-opacity:0.8;stroke-width:1.5;" x="159.414579" xlink:href="#m5a399c40ae" y="442.520995"/>
     <use style="fill-opacity:0.8;stroke:#000000;stroke-opacity:0.8;stroke-width:1.5;" x="145.22633" xlink:href="#m5a399c40ae" y="444.45644"/>
     <use style="fill-opacity:0.8;stroke:#000000;stroke-opacity:0.8;stroke-width:1.5;" x="145.605808" xlink:href="#m5a399c40ae" y="432.941213"/>
     <use style="fill-opacity:0.8;stroke:#000000;stroke-opacity:0.8;stroke-width:1.5;" x="630.405809" xlink:href="#m5a399c40ae" y="436.088279"/>
     <use style="fill-opacity:0.8;stroke:#000000;stroke-opacity:0.8;stroke-width:1.5;" x="201.29349" xlink:href="#m5a399c40ae" y="446.150872"/>
     <use style="fill-opacity:0.8;stroke:#000000;stroke-opacity:0.8;stroke-width:1.5;" x="242.423628" xlink:href="#m5a399c40ae" y="402.446675"/>
     <use style="fill-opacity:0.8;stroke:#000000;stroke-opacity:0.8;stroke-width:1.5;" x="157.964574" xlink:href="#m5a399c40ae" y="431.299482"/>
     <use style="fill-opacity:0.8;stroke:#000000;stroke-opacity:0.8;stroke-width:1.5;" x="179.418704" xlink:href="#m5a399c40ae" y="416.149126"/>
     <use style="fill-opacity:0.8;stroke:#000000;stroke-opacity:0.8;stroke-width:1.5;" x="213.485013" xlink:href="#m5a399c40ae" y="404.515275"/>
     <use style="fill-opacity:0.8;stroke:#000000;stroke-opacity:0.8;stroke-width:1.5;" x="476.014701" xlink:href="#m5a399c40ae" y="441.941054"/>
     <use style="fill-opacity:0.8;stroke:#000000;stroke-opacity:0.8;stroke-width:1.5;" x="145.545341" xlink:href="#m5a399c40ae" y="427.97181"/>
     <use style="fill-opacity:0.8;stroke:#000000;stroke-opacity:0.8;stroke-width:1.5;" x="145.496165" xlink:href="#m5a399c40ae" y="429.947438"/>
     <use style="fill-opacity:0.8;stroke:#000000;stroke-opacity:0.8;stroke-width:1.5;" x="145.512771" xlink:href="#m5a399c40ae" y="444.744287"/>
     <use style="fill-opacity:0.8;stroke:#000000;stroke-opacity:0.8;stroke-width:1.5;" x="462.616795" xlink:href="#m5a399c40ae" y="436.068494"/>
     <use style="fill-opacity:0.8;stroke:#000000;stroke-opacity:0.8;stroke-width:1.5;" x="603.039569" xlink:href="#m5a399c40ae" y="443.139063"/>
     <use style="fill-opacity:0.8;stroke:#000000;stroke-opacity:0.8;stroke-width:1.5;" x="802.606988" xlink:href="#m5a399c40ae" y="444.619886"/>
     <use style="fill-opacity:0.8;stroke:#000000;stroke-opacity:0.8;stroke-width:1.5;" x="241.630654" xlink:href="#m5a399c40ae" y="438.790748"/>
     <use style="fill-opacity:0.8;stroke:#000000;stroke-opacity:0.8;stroke-width:1.5;" x="464.362024" xlink:href="#m5a399c40ae" y="442.456562"/>
     <use style="fill-opacity:0.8;stroke:#000000;stroke-opacity:0.8;stroke-width:1.5;" x="164.75391" xlink:href="#m5a399c40ae" y="440.766463"/>
     <use style="fill-opacity:0.8;stroke:#000000;stroke-opacity:0.8;stroke-width:1.5;" x="349.323004" xlink:href="#m5a399c40ae" y="444.058022"/>
     <use style="fill-opacity:0.8;stroke:#000000;stroke-opacity:0.8;stroke-width:1.5;" x="233.382092" xlink:href="#m5a399c40ae" y="425.460496"/>
     <use style="fill-opacity:0.8;stroke:#000000;stroke-opacity:0.8;stroke-width:1.5;" x="160.536944" xlink:href="#m5a399c40ae" y="408.893443"/>
     <use style="fill-opacity:0.8;stroke:#000000;stroke-opacity:0.8;stroke-width:1.5;" x="809.652771" xlink:href="#m5a399c40ae" y="444.817344"/>
     <use style="fill-opacity:0.8;stroke:#000000;stroke-opacity:0.8;stroke-width:1.5;" x="252.60324" xlink:href="#m5a399c40ae" y="433.022542"/>
     <use style="fill-opacity:0.8;stroke:#000000;stroke-opacity:0.8;stroke-width:1.5;" x="285.583747" xlink:href="#m5a399c40ae" y="441.456142"/>
     <use style="fill-opacity:0.8;stroke:#000000;stroke-opacity:0.8;stroke-width:1.5;" x="395.794743" xlink:href="#m5a399c40ae" y="433.741855"/>
     <use style="fill-opacity:0.8;stroke:#000000;stroke-opacity:0.8;stroke-width:1.5;" x="522.479089" xlink:href="#m5a399c40ae" y="442.504012"/>
     <use style="fill-opacity:0.8;stroke:#000000;stroke-opacity:0.8;stroke-width:1.5;" x="384.021669" xlink:href="#m5a399c40ae" y="446.421649"/>
     <use style="fill-opacity:0.8;stroke:#000000;stroke-opacity:0.8;stroke-width:1.5;" x="581.325225" xlink:href="#m5a399c40ae" y="445.536044"/>
     <use style="fill-opacity:0.8;stroke:#000000;stroke-opacity:0.8;stroke-width:1.5;" x="291.241649" xlink:href="#m5a399c40ae" y="445.95928"/>
     <use style="fill-opacity:0.8;stroke:#000000;stroke-opacity:0.8;stroke-width:1.5;" x="148.532116" xlink:href="#m5a399c40ae" y="439.163777"/>
     <use style="fill-opacity:0.8;stroke:#000000;stroke-opacity:0.8;stroke-width:1.5;" x="154.753629" xlink:href="#m5a399c40ae" y="441.967361"/>
     <use style="fill-opacity:0.8;stroke:#000000;stroke-opacity:0.8;stroke-width:1.5;" x="387.149727" xlink:href="#m5a399c40ae" y="444.870308"/>
     <use style="fill-opacity:0.8;stroke:#000000;stroke-opacity:0.8;stroke-width:1.5;" x="154.581784" xlink:href="#m5a399c40ae" y="446.894085"/>
     <use style="fill-opacity:0.8;stroke:#000000;stroke-opacity:0.8;stroke-width:1.5;" x="261.949228" xlink:href="#m5a399c40ae" y="446.539835"/>
     <use style="fill-opacity:0.8;stroke:#000000;stroke-opacity:0.8;stroke-width:1.5;" x="145.79937" xlink:href="#m5a399c40ae" y="444.339655"/>
     <use style="fill-opacity:0.8;stroke:#000000;stroke-opacity:0.8;stroke-width:1.5;" x="144.063842" xlink:href="#m5a399c40ae" y="443.167296"/>
     <use style="fill-opacity:0.8;stroke:#000000;stroke-opacity:0.8;stroke-width:1.5;" x="144.828298" xlink:href="#m5a399c40ae" y="446.555024"/>
     <use style="fill-opacity:0.8;stroke:#000000;stroke-opacity:0.8;stroke-width:1.5;" x="144.29217" xlink:href="#m5a399c40ae" y="446.790782"/>
     <use style="fill-opacity:0.8;stroke:#000000;stroke-opacity:0.8;stroke-width:1.5;" x="333.257815" xlink:href="#m5a399c40ae" y="447.08756"/>
     <use style="fill-opacity:0.8;stroke:#000000;stroke-opacity:0.8;stroke-width:1.5;" x="169.333423" xlink:href="#m5a399c40ae" y="440.409761"/>
     <use style="fill-opacity:0.8;stroke:#000000;stroke-opacity:0.8;stroke-width:1.5;" x="157.207248" xlink:href="#m5a399c40ae" y="442.275826"/>
     <use style="fill-opacity:0.8;stroke:#000000;stroke-opacity:0.8;stroke-width:1.5;" x="263.555702" xlink:href="#m5a399c40ae" y="443.231904"/>
     <use style="fill-opacity:0.8;stroke:#000000;stroke-opacity:0.8;stroke-width:1.5;" x="247.937927" xlink:href="#m5a399c40ae" y="445.684914"/>
     <use style="fill-opacity:0.8;stroke:#000000;stroke-opacity:0.8;stroke-width:1.5;" x="153.269842" xlink:href="#m5a399c40ae" y="441.798093"/>
     <use style="fill-opacity:0.8;stroke:#000000;stroke-opacity:0.8;stroke-width:1.5;" x="156.071657" xlink:href="#m5a399c40ae" y="445.116266"/>
     <use style="fill-opacity:0.8;stroke:#000000;stroke-opacity:0.8;stroke-width:1.5;" x="146.28997" xlink:href="#m5a399c40ae" y="445.13592"/>
     <use style="fill-opacity:0.8;stroke:#000000;stroke-opacity:0.8;stroke-width:1.5;" x="310.553817" xlink:href="#m5a399c40ae" y="445.696601"/>
     <use style="fill-opacity:0.8;stroke:#000000;stroke-opacity:0.8;stroke-width:1.5;" x="151.141053" xlink:href="#m5a399c40ae" y="442.672798"/>
     <use style="fill-opacity:0.8;stroke:#000000;stroke-opacity:0.8;stroke-width:1.5;" x="154.756551" xlink:href="#m5a399c40ae" y="445.14695"/>
     <use style="fill-opacity:0.8;stroke:#000000;stroke-opacity:0.8;stroke-width:1.5;" x="144.895653" xlink:href="#m5a399c40ae" y="445.078271"/>
     <use style="fill-opacity:0.8;stroke:#000000;stroke-opacity:0.8;stroke-width:1.5;" x="144.29283" xlink:href="#m5a399c40ae" y="444.896003"/>
     <use style="fill-opacity:0.8;stroke:#000000;stroke-opacity:0.8;stroke-width:1.5;" x="246.356703" xlink:href="#m5a399c40ae" y="445.530923"/>
     <use style="fill-opacity:0.8;stroke:#000000;stroke-opacity:0.8;stroke-width:1.5;" x="326.477686" xlink:href="#m5a399c40ae" y="445.917565"/>
     <use style="fill-opacity:0.8;stroke:#000000;stroke-opacity:0.8;stroke-width:1.5;" x="144.013405" xlink:href="#m5a399c40ae" y="447.155757"/>
     <use style="fill-opacity:0.8;stroke:#000000;stroke-opacity:0.8;stroke-width:1.5;" x="147.205327" xlink:href="#m5a399c40ae" y="441.651849"/>
     <use style="fill-opacity:0.8;stroke:#000000;stroke-opacity:0.8;stroke-width:1.5;" x="146.168727" xlink:href="#m5a399c40ae" y="446.877014"/>
     <use style="fill-opacity:0.8;stroke:#000000;stroke-opacity:0.8;stroke-width:1.5;" x="388.117687" xlink:href="#m5a399c40ae" y="446.795116"/>
     <use style="fill-opacity:0.8;stroke:#000000;stroke-opacity:0.8;stroke-width:1.5;" x="144.274962" xlink:href="#m5a399c40ae" y="446.211585"/>
     <use style="fill-opacity:0.8;stroke:#000000;stroke-opacity:0.8;stroke-width:1.5;" x="161.440432" xlink:href="#m5a399c40ae" y="445.246401"/>
     <use style="fill-opacity:0.8;stroke:#000000;stroke-opacity:0.8;stroke-width:1.5;" x="150.373972" xlink:href="#m5a399c40ae" y="444.701303"/>
     <use style="fill-opacity:0.8;stroke:#000000;stroke-opacity:0.8;stroke-width:1.5;" x="198.819298" xlink:href="#m5a399c40ae" y="444.285289"/>
     <use style="fill-opacity:0.8;stroke:#000000;stroke-opacity:0.8;stroke-width:1.5;" x="237.927012" xlink:href="#m5a399c40ae" y="442.869468"/>
     <use style="fill-opacity:0.8;stroke:#000000;stroke-opacity:0.8;stroke-width:1.5;" x="144.112337" xlink:href="#m5a399c40ae" y="446.677193"/>
     <use style="fill-opacity:0.8;stroke:#000000;stroke-opacity:0.8;stroke-width:1.5;" x="146.697214" xlink:href="#m5a399c40ae" y="440.81435"/>
     <use style="fill-opacity:0.8;stroke:#000000;stroke-opacity:0.8;stroke-width:1.5;" x="207.617543" xlink:href="#m5a399c40ae" y="447.040942"/>
     <use style="fill-opacity:0.8;stroke:#000000;stroke-opacity:0.8;stroke-width:1.5;" x="354.230561" xlink:href="#m5a399c40ae" y="446.456142"/>
     <use style="fill-opacity:0.8;stroke:#000000;stroke-opacity:0.8;stroke-width:1.5;" x="144.5735" xlink:href="#m5a399c40ae" y="447.065542"/>
     <use style="fill-opacity:0.8;stroke:#000000;stroke-opacity:0.8;stroke-width:1.5;" x="218.58619" xlink:href="#m5a399c40ae" y="443.701802"/>
     <use style="fill-opacity:0.8;stroke:#000000;stroke-opacity:0.8;stroke-width:1.5;" x="144.030782" xlink:href="#m5a399c40ae" y="445.382534"/>
     <use style="fill-opacity:0.8;stroke:#000000;stroke-opacity:0.8;stroke-width:1.5;" x="144.126397" xlink:href="#m5a399c40ae" y="446.455397"/>
     <use style="fill-opacity:0.8;stroke:#000000;stroke-opacity:0.8;stroke-width:1.5;" x="145.854832" xlink:href="#m5a399c40ae" y="447.143238"/>
     <use style="fill-opacity:0.8;stroke:#000000;stroke-opacity:0.8;stroke-width:1.5;" x="313.005994" xlink:href="#m5a399c40ae" y="446.644889"/>
     <use style="fill-opacity:0.8;stroke:#000000;stroke-opacity:0.8;stroke-width:1.5;" x="278.171997" xlink:href="#m5a399c40ae" y="446.989553"/>
     <use style="fill-opacity:0.8;stroke:#000000;stroke-opacity:0.8;stroke-width:1.5;" x="144.308992" xlink:href="#m5a399c40ae" y="446.477984"/>
     <use style="fill-opacity:0.8;stroke:#000000;stroke-opacity:0.8;stroke-width:1.5;" x="156.435531" xlink:href="#m5a399c40ae" y="445.749785"/>
     <use style="fill-opacity:0.8;stroke:#000000;stroke-opacity:0.8;stroke-width:1.5;" x="148.403344" xlink:href="#m5a399c40ae" y="443.206079"/>
     <use style="fill-opacity:0.8;stroke:#000000;stroke-opacity:0.8;stroke-width:1.5;" x="181.841443" xlink:href="#m5a399c40ae" y="445.565984"/>
     <use style="fill-opacity:0.8;stroke:#000000;stroke-opacity:0.8;stroke-width:1.5;" x="358.063526" xlink:href="#m5a399c40ae" y="446.973182"/>
     <use style="fill-opacity:0.8;stroke:#000000;stroke-opacity:0.8;stroke-width:1.5;" x="157.667018" xlink:href="#m5a399c40ae" y="446.922319"/>
     <use style="fill-opacity:0.8;stroke:#000000;stroke-opacity:0.8;stroke-width:1.5;" x="144.179876" xlink:href="#m5a399c40ae" y="447.005705"/>
     <use style="fill-opacity:0.8;stroke:#000000;stroke-opacity:0.8;stroke-width:1.5;" x="144.691661" xlink:href="#m5a399c40ae" y="446.796166"/>
     <use style="fill-opacity:0.8;stroke:#000000;stroke-opacity:0.8;stroke-width:1.5;" x="144.042466" xlink:href="#m5a399c40ae" y="446.419942"/>
     <use style="fill-opacity:0.8;stroke:#000000;stroke-opacity:0.8;stroke-width:1.5;" x="161.923784" xlink:href="#m5a399c40ae" y="447.141444"/>
     <use style="fill-opacity:0.8;stroke:#000000;stroke-opacity:0.8;stroke-width:1.5;" x="229.280095" xlink:href="#m5a399c40ae" y="446.157613"/>
     <use style="fill-opacity:0.8;stroke:#000000;stroke-opacity:0.8;stroke-width:1.5;" x="144.813075" xlink:href="#m5a399c40ae" y="446.910237"/>
     <use style="fill-opacity:0.8;stroke:#000000;stroke-opacity:0.8;stroke-width:1.5;" x="151.633724" xlink:href="#m5a399c40ae" y="446.370129"/>
     <use style="fill-opacity:0.8;stroke:#000000;stroke-opacity:0.8;stroke-width:1.5;" x="144.82742" xlink:href="#m5a399c40ae" y="446.659771"/>
     <use style="fill-opacity:0.8;stroke:#000000;stroke-opacity:0.8;stroke-width:1.5;" x="144.122593" xlink:href="#m5a399c40ae" y="446.766138"/>
     <use style="fill-opacity:0.8;stroke:#000000;stroke-opacity:0.8;stroke-width:1.5;" x="151.292354" xlink:href="#m5a399c40ae" y="446.964822"/>
     <use style="fill-opacity:0.8;stroke:#000000;stroke-opacity:0.8;stroke-width:1.5;" x="144.005328" xlink:href="#m5a399c40ae" y="447.130325"/>
     <use style="fill-opacity:0.8;stroke:#000000;stroke-opacity:0.8;stroke-width:1.5;" x="144.024289" xlink:href="#m5a399c40ae" y="447.050441"/>
     <use style="fill-opacity:0.8;stroke:#000000;stroke-opacity:0.8;stroke-width:1.5;" x="287.69859" xlink:href="#m5a399c40ae" y="447.025928"/>
     <use style="fill-opacity:0.8;stroke:#000000;stroke-opacity:0.8;stroke-width:1.5;" x="144" xlink:href="#m5a399c40ae" y="446.646464"/>
     <use style="fill-opacity:0.8;stroke:#000000;stroke-opacity:0.8;stroke-width:1.5;" x="144.848344" xlink:href="#m5a399c40ae" y="446.6912"/>
     <use style="fill-opacity:0.8;stroke:#000000;stroke-opacity:0.8;stroke-width:1.5;" x="201.032407" xlink:href="#m5a399c40ae" y="444.05509"/>
     <use style="fill-opacity:0.8;stroke:#000000;stroke-opacity:0.8;stroke-width:1.5;" x="167.396321" xlink:href="#m5a399c40ae" y="447.137329"/>
     <use style="fill-opacity:0.8;stroke:#000000;stroke-opacity:0.8;stroke-width:1.5;" x="147.570094" xlink:href="#m5a399c40ae" y="446.612716"/>
     <use style="fill-opacity:0.8;stroke:#000000;stroke-opacity:0.8;stroke-width:1.5;" x="153.633135" xlink:href="#m5a399c40ae" y="446.786099"/>
     <use style="fill-opacity:0.8;stroke:#000000;stroke-opacity:0.8;stroke-width:1.5;" x="144.173007" xlink:href="#m5a399c40ae" y="447.043831"/>
     <use style="fill-opacity:0.8;stroke:#000000;stroke-opacity:0.8;stroke-width:1.5;" x="144.276303" xlink:href="#m5a399c40ae" y="446.936369"/>
     <use style="fill-opacity:0.8;stroke:#000000;stroke-opacity:0.8;stroke-width:1.5;" x="153.11452" xlink:href="#m5a399c40ae" y="444.791781"/>
     <use style="fill-opacity:0.8;stroke:#000000;stroke-opacity:0.8;stroke-width:1.5;" x="144.214537" xlink:href="#m5a399c40ae" y="446.899075"/>
     <use style="fill-opacity:0.8;stroke:#000000;stroke-opacity:0.8;stroke-width:1.5;" x="144.073007" xlink:href="#m5a399c40ae" y="446.985482"/>
     <use style="fill-opacity:0.8;stroke:#000000;stroke-opacity:0.8;stroke-width:1.5;" x="144.224381" xlink:href="#m5a399c40ae" y="446.762724"/>
     <use style="fill-opacity:0.8;stroke:#000000;stroke-opacity:0.8;stroke-width:1.5;" x="438.690336" xlink:href="#m5a399c40ae" y="446.935757"/>
     <use style="fill-opacity:0.8;stroke:#000000;stroke-opacity:0.8;stroke-width:1.5;" x="841.304483" xlink:href="#m5a399c40ae" y="446.9706"/>
     <use style="fill-opacity:0.8;stroke:#000000;stroke-opacity:0.8;stroke-width:1.5;" x="144.052744" xlink:href="#m5a399c40ae" y="446.821423"/>
     <use style="fill-opacity:0.8;stroke:#000000;stroke-opacity:0.8;stroke-width:1.5;" x="144.042671" xlink:href="#m5a399c40ae" y="447.062959"/>
     <use style="fill-opacity:0.8;stroke:#000000;stroke-opacity:0.8;stroke-width:1.5;" x="182.584449" xlink:href="#m5a399c40ae" y="446.454172"/>
     <use style="fill-opacity:0.8;stroke:#000000;stroke-opacity:0.8;stroke-width:1.5;" x="144.100826" xlink:href="#m5a399c40ae" y="447.053461"/>
     <use style="fill-opacity:0.8;stroke:#000000;stroke-opacity:0.8;stroke-width:1.5;" x="144.667454" xlink:href="#m5a399c40ae" y="447.154488"/>
     <use style="fill-opacity:0.8;stroke:#000000;stroke-opacity:0.8;stroke-width:1.5;" x="144.655509" xlink:href="#m5a399c40ae" y="447.154313"/>
     <use style="fill-opacity:0.8;stroke:#000000;stroke-opacity:0.8;stroke-width:1.5;" x="151.11981" xlink:href="#m5a399c40ae" y="446.930592"/>
     <use style="fill-opacity:0.8;stroke:#000000;stroke-opacity:0.8;stroke-width:1.5;" x="144.013703" xlink:href="#m5a399c40ae" y="447.131639"/>
     <use style="fill-opacity:0.8;stroke:#000000;stroke-opacity:0.8;stroke-width:1.5;" x="147.472785" xlink:href="#m5a399c40ae" y="447.141225"/>
     <use style="fill-opacity:0.8;stroke:#000000;stroke-opacity:0.8;stroke-width:1.5;" x="154.476912" xlink:href="#m5a399c40ae" y="446.660428"/>
     <use style="fill-opacity:0.8;stroke:#000000;stroke-opacity:0.8;stroke-width:1.5;" x="144.072845" xlink:href="#m5a399c40ae" y="447.135972"/>
     <use style="fill-opacity:0.8;stroke:#000000;stroke-opacity:0.8;stroke-width:1.5;" x="144.128166" xlink:href="#m5a399c40ae" y="447.075522"/>
     <use style="fill-opacity:0.8;stroke:#000000;stroke-opacity:0.8;stroke-width:1.5;" x="696.226152" xlink:href="#m5a399c40ae" y="447.143807"/>
     <use style="fill-opacity:0.8;stroke:#000000;stroke-opacity:0.8;stroke-width:1.5;" x="144.178741" xlink:href="#m5a399c40ae" y="446.989597"/>
     <use style="fill-opacity:0.8;stroke:#000000;stroke-opacity:0.8;stroke-width:1.5;" x="775.53526" xlink:href="#m5a399c40ae" y="447.144289"/>
     <use style="fill-opacity:0.8;stroke:#000000;stroke-opacity:0.8;stroke-width:1.5;" x="144.136012" xlink:href="#m5a399c40ae" y="447.095132"/>
     <use style="fill-opacity:0.8;stroke:#000000;stroke-opacity:0.8;stroke-width:1.5;" x="155.962266" xlink:href="#m5a399c40ae" y="447.14604"/>
     <use style="fill-opacity:0.8;stroke:#000000;stroke-opacity:0.8;stroke-width:1.5;" x="353.090192" xlink:href="#m5a399c40ae" y="446.98894"/>
     <use style="fill-opacity:0.8;stroke:#000000;stroke-opacity:0.8;stroke-width:1.5;" x="151.492189" xlink:href="#m5a399c40ae" y="447.02943"/>
     <use style="fill-opacity:0.8;stroke:#000000;stroke-opacity:0.8;stroke-width:1.5;" x="150.0682" xlink:href="#m5a399c40ae" y="447.149235"/>
     <use style="fill-opacity:0.8;stroke:#000000;stroke-opacity:0.8;stroke-width:1.5;" x="166.876213" xlink:href="#m5a399c40ae" y="447.150417"/>
     <use style="fill-opacity:0.8;stroke:#000000;stroke-opacity:0.8;stroke-width:1.5;" x="201.297316" xlink:href="#m5a399c40ae" y="447.120914"/>
     <use style="fill-opacity:0.8;stroke:#000000;stroke-opacity:0.8;stroke-width:1.5;" x="150.502628" xlink:href="#m5a399c40ae" y="447.154094"/>
     <use style="fill-opacity:0.8;stroke:#000000;stroke-opacity:0.8;stroke-width:1.5;" x="144.205625" xlink:href="#m5a399c40ae" y="447.155626"/>
     <use style="fill-opacity:0.8;stroke:#000000;stroke-opacity:0.8;stroke-width:1.5;" x="150.297614" xlink:href="#m5a399c40ae" y="447.155757"/>
    </g>
   </g>
   <g id="PolyCollection_1">
    <path clip-path="url(#pc9430c6107)" d="M 144 431.004113 
L 144 447.667024 
L 153.018182 444.700484 
L 162.036364 442.710429 
L 171.054545 441.644317 
L 180.072727 441.034354 
L 189.090909 440.407916 
L 198.109091 439.86324 
L 207.127273 439.622057 
L 216.145455 439.324865 
L 225.163636 439.248228 
L 234.181818 439.043043 
L 243.2 438.760439 
L 252.218182 438.757766 
L 261.236364 438.776865 
L 270.254545 438.86878 
L 279.272727 438.966606 
L 288.290909 438.946626 
L 297.309091 438.974433 
L 306.327273 439.084926 
L 315.345455 439.330429 
L 324.363636 439.452105 
L 333.381818 440.010116 
L 342.4 440.582771 
L 351.418182 441.427093 
L 360.436364 442.598257 
L 369.454545 444.087626 
L 378.472727 445.542723 
L 387.490909 447.119088 
L 396.509091 448.704803 
L 405.527273 450.321249 
L 414.545455 452.290973 
L 423.563636 453.992171 
L 432.581818 455.575029 
L 441.6 457.617408 
L 450.618182 459.408831 
L 459.636364 461.469239 
L 468.654545 463.197267 
L 477.672727 465.297243 
L 486.690909 467.367909 
L 495.709091 469.144825 
L 504.727273 470.719194 
L 513.745455 472.246559 
L 522.763636 473.918652 
L 531.781818 475.428725 
L 540.8 476.877907 
L 549.818182 477.951316 
L 558.836364 479.021664 
L 567.854545 480.227527 
L 576.872727 481.408707 
L 585.890909 482.463562 
L 594.909091 483.128549 
L 603.927273 483.598791 
L 612.945455 483.912396 
L 621.963636 484.171298 
L 630.981818 484.232727 
L 640 483.976904 
L 649.018182 483.869131 
L 658.036364 483.302126 
L 667.054545 482.572763 
L 676.072727 481.322754 
L 685.090909 479.732975 
L 694.109091 478.111325 
L 703.127273 476.271326 
L 712.145455 474.133182 
L 721.163636 471.673198 
L 730.181818 468.867423 
L 739.2 465.852028 
L 748.218182 462.430478 
L 757.236364 458.63294 
L 766.254545 454.597387 
L 775.272727 450.679566 
L 784.290909 447.458817 
L 793.309091 446.085912 
L 802.327273 445.686575 
L 811.345455 445.315798 
L 820.363636 445.106019 
L 829.381818 444.807767 
L 838.4 444.563738 
L 847.418182 444.553984 
L 856.436364 444.549326 
L 865.454545 444.54138 
L 874.472727 444.344564 
L 883.490909 444.125573 
L 892.509091 443.879703 
L 901.527273 443.609745 
L 910.545455 443.31506 
L 919.563636 442.984395 
L 928.581818 442.607217 
L 937.6 442.206865 
L 946.618182 441.78292 
L 955.636364 441.334961 
L 964.654545 440.862566 
L 973.672727 440.365314 
L 982.690909 439.842785 
L 991.709091 439.294558 
L 1000.727273 438.720212 
L 1009.745455 438.229298 
L 1018.763636 437.623189 
L 1027.781818 436.951885 
L 1036.8 436.246935 
L 1036.8 98.89244 
L 1036.8 98.89244 
L 1027.781818 117.243486 
L 1018.763636 134.405341 
L 1009.745455 152.291385 
L 1000.727273 168.489063 
L 991.709091 183.899763 
L 982.690909 198.641924 
L 973.672727 213.404062 
L 964.654545 227.704416 
L 955.636364 240.998059 
L 946.618182 254.198841 
L 937.6 266.28413 
L 928.581818 277.954202 
L 919.563636 288.925599 
L 910.545455 299.391872 
L 901.527273 309.849124 
L 892.509091 319.230372 
L 883.490909 328.909225 
L 874.472727 337.770623 
L 865.454545 346.006928 
L 856.436364 354.431833 
L 847.418182 362.4153 
L 838.4 369.854471 
L 829.381818 376.763304 
L 820.363636 383.244005 
L 811.345455 389.539422 
L 802.327273 395.753257 
L 793.309091 401.632251 
L 784.290909 407.179208 
L 775.272727 412.211971 
L 766.254545 416.885624 
L 757.236364 421.009768 
L 748.218182 425.172668 
L 739.2 429.037577 
L 730.181818 432.751394 
L 721.163636 435.8942 
L 712.145455 438.292776 
L 703.127273 440.814953 
L 694.109091 441.827021 
L 685.090909 442.272713 
L 676.072727 442.608812 
L 667.054545 442.922145 
L 658.036364 443.271181 
L 649.018182 443.113526 
L 640 443.242301 
L 630.981818 443.336027 
L 621.963636 443.150691 
L 612.945455 443.154908 
L 603.927273 442.93186 
L 594.909091 442.667535 
L 585.890909 442.399686 
L 576.872727 442.125579 
L 567.854545 441.846539 
L 558.836364 441.644453 
L 549.818182 441.54631 
L 540.8 441.19071 
L 531.781818 441.042312 
L 522.763636 440.778229 
L 513.745455 440.624961 
L 504.727273 440.308922 
L 495.709091 439.985588 
L 486.690909 439.670731 
L 477.672727 439.288283 
L 468.654545 438.907414 
L 459.636364 438.488646 
L 450.618182 437.840907 
L 441.6 437.366338 
L 432.581818 436.76424 
L 423.563636 436.238289 
L 414.545455 435.645577 
L 405.527273 434.748151 
L 396.509091 433.741202 
L 387.490909 432.775404 
L 378.472727 431.584096 
L 369.454545 430.42449 
L 360.436364 429.077142 
L 351.418182 427.890134 
L 342.4 426.572358 
L 333.381818 425.496558 
L 324.363636 424.276073 
L 315.345455 423.309933 
L 306.327273 422.518851 
L 297.309091 421.882007 
L 288.290909 421.21942 
L 279.272727 420.760706 
L 270.254545 420.539434 
L 261.236364 420.649383 
L 252.218182 420.472559 
L 243.2 420.8882 
L 234.181818 421.349028 
L 225.163636 421.700305 
L 216.145455 422.309478 
L 207.127273 423.233571 
L 198.109091 424.215283 
L 189.090909 425.388122 
L 180.072727 427.002889 
L 171.054545 428.050832 
L 162.036364 429.20579 
L 153.018182 430.152563 
L 144 431.004113 
z
" style="fill:#008000;fill-opacity:0.15;"/>
   </g>
   <g id="matplotlib.axis_1">
    <g id="xtick_1">
     <g id="line2d_1">
      <defs>
       <path d="M 0 0 
L 0 3.5 
" id="mdd4ce6d6fd" style="stroke:#000000;stroke-width:0.8;"/>
      </defs>
      <g>
       <use style="stroke:#000000;stroke-width:0.8;" x="293.625975" xlink:href="#mdd4ce6d6fd" y="504"/>
      </g>
     </g>
     <g id="text_1">
      <!-- 0.001 -->
      <defs>
       <path d="M 31.78125 66.40625 
Q 24.171875 66.40625 20.328125 58.90625 
Q 16.5 51.421875 16.5 36.375 
Q 16.5 21.390625 20.328125 13.890625 
Q 24.171875 6.390625 31.78125 6.390625 
Q 39.453125 6.390625 43.28125 13.890625 
Q 47.125 21.390625 47.125 36.375 
Q 47.125 51.421875 43.28125 58.90625 
Q 39.453125 66.40625 31.78125 66.40625 
z
M 31.78125 74.21875 
Q 44.046875 74.21875 50.515625 64.515625 
Q 56.984375 54.828125 56.984375 36.375 
Q 56.984375 17.96875 50.515625 8.265625 
Q 44.046875 -1.421875 31.78125 -1.421875 
Q 19.53125 -1.421875 13.0625 8.265625 
Q 6.59375 17.96875 6.59375 36.375 
Q 6.59375 54.828125 13.0625 64.515625 
Q 19.53125 74.21875 31.78125 74.21875 
z
" id="DejaVuSans-48"/>
       <path d="M 10.6875 12.40625 
L 21 12.40625 
L 21 0 
L 10.6875 0 
z
" id="DejaVuSans-46"/>
       <path d="M 12.40625 8.296875 
L 28.515625 8.296875 
L 28.515625 63.921875 
L 10.984375 60.40625 
L 10.984375 69.390625 
L 28.421875 72.90625 
L 38.28125 72.90625 
L 38.28125 8.296875 
L 54.390625 8.296875 
L 54.390625 0 
L 12.40625 0 
z
" id="DejaVuSans-49"/>
      </defs>
      <g transform="translate(279.311912 518.598438)scale(0.1 -0.1)">
       <use xlink:href="#DejaVuSans-48"/>
       <use x="63.623047" xlink:href="#DejaVuSans-46"/>
       <use x="95.410156" xlink:href="#DejaVuSans-48"/>
       <use x="159.033203" xlink:href="#DejaVuSans-48"/>
       <use x="222.65625" xlink:href="#DejaVuSans-49"/>
      </g>
     </g>
    </g>
    <g id="xtick_2">
     <g id="line2d_2">
      <g>
       <use style="stroke:#000000;stroke-width:0.8;" x="443.263294" xlink:href="#mdd4ce6d6fd" y="504"/>
      </g>
     </g>
     <g id="text_2">
      <!-- 0.002 -->
      <defs>
       <path d="M 19.1875 8.296875 
L 53.609375 8.296875 
L 53.609375 0 
L 7.328125 0 
L 7.328125 8.296875 
Q 12.9375 14.109375 22.625 23.890625 
Q 32.328125 33.6875 34.8125 36.53125 
Q 39.546875 41.84375 41.421875 45.53125 
Q 43.3125 49.21875 43.3125 52.78125 
Q 43.3125 58.59375 39.234375 62.25 
Q 35.15625 65.921875 28.609375 65.921875 
Q 23.96875 65.921875 18.8125 64.3125 
Q 13.671875 62.703125 7.8125 59.421875 
L 7.8125 69.390625 
Q 13.765625 71.78125 18.9375 73 
Q 24.125 74.21875 28.421875 74.21875 
Q 39.75 74.21875 46.484375 68.546875 
Q 53.21875 62.890625 53.21875 53.421875 
Q 53.21875 48.921875 51.53125 44.890625 
Q 49.859375 40.875 45.40625 35.40625 
Q 44.1875 33.984375 37.640625 27.21875 
Q 31.109375 20.453125 19.1875 8.296875 
z
" id="DejaVuSans-50"/>
      </defs>
      <g transform="translate(428.949231 518.598438)scale(0.1 -0.1)">
       <use xlink:href="#DejaVuSans-48"/>
       <use x="63.623047" xlink:href="#DejaVuSans-46"/>
       <use x="95.410156" xlink:href="#DejaVuSans-48"/>
       <use x="159.033203" xlink:href="#DejaVuSans-48"/>
       <use x="222.65625" xlink:href="#DejaVuSans-50"/>
      </g>
     </g>
    </g>
    <g id="xtick_3">
     <g id="line2d_3">
      <g>
       <use style="stroke:#000000;stroke-width:0.8;" x="592.900612" xlink:href="#mdd4ce6d6fd" y="504"/>
      </g>
     </g>
     <g id="text_3">
      <!-- 0.003 -->
      <defs>
       <path d="M 40.578125 39.3125 
Q 47.65625 37.796875 51.625 33 
Q 55.609375 28.21875 55.609375 21.1875 
Q 55.609375 10.40625 48.1875 4.484375 
Q 40.765625 -1.421875 27.09375 -1.421875 
Q 22.515625 -1.421875 17.65625 -0.515625 
Q 12.796875 0.390625 7.625 2.203125 
L 7.625 11.71875 
Q 11.71875 9.328125 16.59375 8.109375 
Q 21.484375 6.890625 26.8125 6.890625 
Q 36.078125 6.890625 40.9375 10.546875 
Q 45.796875 14.203125 45.796875 21.1875 
Q 45.796875 27.640625 41.28125 31.265625 
Q 36.765625 34.90625 28.71875 34.90625 
L 20.21875 34.90625 
L 20.21875 43.015625 
L 29.109375 43.015625 
Q 36.375 43.015625 40.234375 45.921875 
Q 44.09375 48.828125 44.09375 54.296875 
Q 44.09375 59.90625 40.109375 62.90625 
Q 36.140625 65.921875 28.71875 65.921875 
Q 24.65625 65.921875 20.015625 65.03125 
Q 15.375 64.15625 9.8125 62.3125 
L 9.8125 71.09375 
Q 15.4375 72.65625 20.34375 73.4375 
Q 25.25 74.21875 29.59375 74.21875 
Q 40.828125 74.21875 47.359375 69.109375 
Q 53.90625 64.015625 53.90625 55.328125 
Q 53.90625 49.265625 50.4375 45.09375 
Q 46.96875 40.921875 40.578125 39.3125 
z
" id="DejaVuSans-51"/>
      </defs>
      <g transform="translate(578.58655 518.598438)scale(0.1 -0.1)">
       <use xlink:href="#DejaVuSans-48"/>
       <use x="63.623047" xlink:href="#DejaVuSans-46"/>
       <use x="95.410156" xlink:href="#DejaVuSans-48"/>
       <use x="159.033203" xlink:href="#DejaVuSans-48"/>
       <use x="222.65625" xlink:href="#DejaVuSans-51"/>
      </g>
     </g>
    </g>
    <g id="xtick_4">
     <g id="line2d_4">
      <g>
       <use style="stroke:#000000;stroke-width:0.8;" x="742.537931" xlink:href="#mdd4ce6d6fd" y="504"/>
      </g>
     </g>
     <g id="text_4">
      <!-- 0.004 -->
      <defs>
       <path d="M 37.796875 64.3125 
L 12.890625 25.390625 
L 37.796875 25.390625 
z
M 35.203125 72.90625 
L 47.609375 72.90625 
L 47.609375 25.390625 
L 58.015625 25.390625 
L 58.015625 17.1875 
L 47.609375 17.1875 
L 47.609375 0 
L 37.796875 0 
L 37.796875 17.1875 
L 4.890625 17.1875 
L 4.890625 26.703125 
z
" id="DejaVuSans-52"/>
      </defs>
      <g transform="translate(728.223868 518.598438)scale(0.1 -0.1)">
       <use xlink:href="#DejaVuSans-48"/>
       <use x="63.623047" xlink:href="#DejaVuSans-46"/>
       <use x="95.410156" xlink:href="#DejaVuSans-48"/>
       <use x="159.033203" xlink:href="#DejaVuSans-48"/>
       <use x="222.65625" xlink:href="#DejaVuSans-52"/>
      </g>
     </g>
    </g>
    <g id="xtick_5">
     <g id="line2d_5">
      <g>
       <use style="stroke:#000000;stroke-width:0.8;" x="892.175249" xlink:href="#mdd4ce6d6fd" y="504"/>
      </g>
     </g>
     <g id="text_5">
      <!-- 0.005 -->
      <defs>
       <path d="M 10.796875 72.90625 
L 49.515625 72.90625 
L 49.515625 64.59375 
L 19.828125 64.59375 
L 19.828125 46.734375 
Q 21.96875 47.46875 24.109375 47.828125 
Q 26.265625 48.1875 28.421875 48.1875 
Q 40.625 48.1875 47.75 41.5 
Q 54.890625 34.8125 54.890625 23.390625 
Q 54.890625 11.625 47.5625 5.09375 
Q 40.234375 -1.421875 26.90625 -1.421875 
Q 22.3125 -1.421875 17.546875 -0.640625 
Q 12.796875 0.140625 7.71875 1.703125 
L 7.71875 11.625 
Q 12.109375 9.234375 16.796875 8.0625 
Q 21.484375 6.890625 26.703125 6.890625 
Q 35.15625 6.890625 40.078125 11.328125 
Q 45.015625 15.765625 45.015625 23.390625 
Q 45.015625 31 40.078125 35.4375 
Q 35.15625 39.890625 26.703125 39.890625 
Q 22.75 39.890625 18.8125 39.015625 
Q 14.890625 38.140625 10.796875 36.28125 
z
" id="DejaVuSans-53"/>
      </defs>
      <g transform="translate(877.861187 518.598438)scale(0.1 -0.1)">
       <use xlink:href="#DejaVuSans-48"/>
       <use x="63.623047" xlink:href="#DejaVuSans-46"/>
       <use x="95.410156" xlink:href="#DejaVuSans-48"/>
       <use x="159.033203" xlink:href="#DejaVuSans-48"/>
       <use x="222.65625" xlink:href="#DejaVuSans-53"/>
      </g>
     </g>
    </g>
    <g id="text_6">
     <!-- Number of TED events normalized by population -->
     <defs>
      <path d="M 9.8125 72.90625 
L 23.09375 72.90625 
L 55.421875 11.921875 
L 55.421875 72.90625 
L 64.984375 72.90625 
L 64.984375 0 
L 51.703125 0 
L 19.390625 60.984375 
L 19.390625 0 
L 9.8125 0 
z
" id="DejaVuSans-78"/>
      <path d="M 8.5 21.578125 
L 8.5 54.6875 
L 17.484375 54.6875 
L 17.484375 21.921875 
Q 17.484375 14.15625 20.5 10.265625 
Q 23.53125 6.390625 29.59375 6.390625 
Q 36.859375 6.390625 41.078125 11.03125 
Q 45.3125 15.671875 45.3125 23.6875 
L 45.3125 54.6875 
L 54.296875 54.6875 
L 54.296875 0 
L 45.3125 0 
L 45.3125 8.40625 
Q 42.046875 3.421875 37.71875 1 
Q 33.40625 -1.421875 27.6875 -1.421875 
Q 18.265625 -1.421875 13.375 4.4375 
Q 8.5 10.296875 8.5 21.578125 
z
M 31.109375 56 
z
" id="DejaVuSans-117"/>
      <path d="M 52 44.1875 
Q 55.375 50.25 60.0625 53.125 
Q 64.75 56 71.09375 56 
Q 79.640625 56 84.28125 50.015625 
Q 88.921875 44.046875 88.921875 33.015625 
L 88.921875 0 
L 79.890625 0 
L 79.890625 32.71875 
Q 79.890625 40.578125 77.09375 44.375 
Q 74.3125 48.1875 68.609375 48.1875 
Q 61.625 48.1875 57.5625 43.546875 
Q 53.515625 38.921875 53.515625 30.90625 
L 53.515625 0 
L 44.484375 0 
L 44.484375 32.71875 
Q 44.484375 40.625 41.703125 44.40625 
Q 38.921875 48.1875 33.109375 48.1875 
Q 26.21875 48.1875 22.15625 43.53125 
Q 18.109375 38.875 18.109375 30.90625 
L 18.109375 0 
L 9.078125 0 
L 9.078125 54.6875 
L 18.109375 54.6875 
L 18.109375 46.1875 
Q 21.1875 51.21875 25.484375 53.609375 
Q 29.78125 56 35.6875 56 
Q 41.65625 56 45.828125 52.96875 
Q 50 49.953125 52 44.1875 
z
" id="DejaVuSans-109"/>
      <path d="M 48.6875 27.296875 
Q 48.6875 37.203125 44.609375 42.84375 
Q 40.53125 48.484375 33.40625 48.484375 
Q 26.265625 48.484375 22.1875 42.84375 
Q 18.109375 37.203125 18.109375 27.296875 
Q 18.109375 17.390625 22.1875 11.75 
Q 26.265625 6.109375 33.40625 6.109375 
Q 40.53125 6.109375 44.609375 11.75 
Q 48.6875 17.390625 48.6875 27.296875 
z
M 18.109375 46.390625 
Q 20.953125 51.265625 25.265625 53.625 
Q 29.59375 56 35.59375 56 
Q 45.5625 56 51.78125 48.09375 
Q 58.015625 40.1875 58.015625 27.296875 
Q 58.015625 14.40625 51.78125 6.484375 
Q 45.5625 -1.421875 35.59375 -1.421875 
Q 29.59375 -1.421875 25.265625 0.953125 
Q 20.953125 3.328125 18.109375 8.203125 
L 18.109375 0 
L 9.078125 0 
L 9.078125 75.984375 
L 18.109375 75.984375 
z
" id="DejaVuSans-98"/>
      <path d="M 56.203125 29.59375 
L 56.203125 25.203125 
L 14.890625 25.203125 
Q 15.484375 15.921875 20.484375 11.0625 
Q 25.484375 6.203125 34.421875 6.203125 
Q 39.59375 6.203125 44.453125 7.46875 
Q 49.3125 8.734375 54.109375 11.28125 
L 54.109375 2.78125 
Q 49.265625 0.734375 44.1875 -0.34375 
Q 39.109375 -1.421875 33.890625 -1.421875 
Q 20.796875 -1.421875 13.15625 6.1875 
Q 5.515625 13.8125 5.515625 26.8125 
Q 5.515625 40.234375 12.765625 48.109375 
Q 20.015625 56 32.328125 56 
Q 43.359375 56 49.78125 48.890625 
Q 56.203125 41.796875 56.203125 29.59375 
z
M 47.21875 32.234375 
Q 47.125 39.59375 43.09375 43.984375 
Q 39.0625 48.390625 32.421875 48.390625 
Q 24.90625 48.390625 20.390625 44.140625 
Q 15.875 39.890625 15.1875 32.171875 
z
" id="DejaVuSans-101"/>
      <path d="M 41.109375 46.296875 
Q 39.59375 47.171875 37.8125 47.578125 
Q 36.03125 48 33.890625 48 
Q 26.265625 48 22.1875 43.046875 
Q 18.109375 38.09375 18.109375 28.8125 
L 18.109375 0 
L 9.078125 0 
L 9.078125 54.6875 
L 18.109375 54.6875 
L 18.109375 46.1875 
Q 20.953125 51.171875 25.484375 53.578125 
Q 30.03125 56 36.53125 56 
Q 37.453125 56 38.578125 55.875 
Q 39.703125 55.765625 41.0625 55.515625 
z
" id="DejaVuSans-114"/>
      <path id="DejaVuSans-32"/>
      <path d="M 30.609375 48.390625 
Q 23.390625 48.390625 19.1875 42.75 
Q 14.984375 37.109375 14.984375 27.296875 
Q 14.984375 17.484375 19.15625 11.84375 
Q 23.34375 6.203125 30.609375 6.203125 
Q 37.796875 6.203125 41.984375 11.859375 
Q 46.1875 17.53125 46.1875 27.296875 
Q 46.1875 37.015625 41.984375 42.703125 
Q 37.796875 48.390625 30.609375 48.390625 
z
M 30.609375 56 
Q 42.328125 56 49.015625 48.375 
Q 55.71875 40.765625 55.71875 27.296875 
Q 55.71875 13.875 49.015625 6.21875 
Q 42.328125 -1.421875 30.609375 -1.421875 
Q 18.84375 -1.421875 12.171875 6.21875 
Q 5.515625 13.875 5.515625 27.296875 
Q 5.515625 40.765625 12.171875 48.375 
Q 18.84375 56 30.609375 56 
z
" id="DejaVuSans-111"/>
      <path d="M 37.109375 75.984375 
L 37.109375 68.5 
L 28.515625 68.5 
Q 23.6875 68.5 21.796875 66.546875 
Q 19.921875 64.59375 19.921875 59.515625 
L 19.921875 54.6875 
L 34.71875 54.6875 
L 34.71875 47.703125 
L 19.921875 47.703125 
L 19.921875 0 
L 10.890625 0 
L 10.890625 47.703125 
L 2.296875 47.703125 
L 2.296875 54.6875 
L 10.890625 54.6875 
L 10.890625 58.5 
Q 10.890625 67.625 15.140625 71.796875 
Q 19.390625 75.984375 28.609375 75.984375 
z
" id="DejaVuSans-102"/>
      <path d="M -0.296875 72.90625 
L 61.375 72.90625 
L 61.375 64.59375 
L 35.5 64.59375 
L 35.5 0 
L 25.59375 0 
L 25.59375 64.59375 
L -0.296875 64.59375 
z
" id="DejaVuSans-84"/>
      <path d="M 9.8125 72.90625 
L 55.90625 72.90625 
L 55.90625 64.59375 
L 19.671875 64.59375 
L 19.671875 43.015625 
L 54.390625 43.015625 
L 54.390625 34.71875 
L 19.671875 34.71875 
L 19.671875 8.296875 
L 56.78125 8.296875 
L 56.78125 0 
L 9.8125 0 
z
" id="DejaVuSans-69"/>
      <path d="M 19.671875 64.796875 
L 19.671875 8.109375 
L 31.59375 8.109375 
Q 46.6875 8.109375 53.6875 14.9375 
Q 60.6875 21.78125 60.6875 36.53125 
Q 60.6875 51.171875 53.6875 57.984375 
Q 46.6875 64.796875 31.59375 64.796875 
z
M 9.8125 72.90625 
L 30.078125 72.90625 
Q 51.265625 72.90625 61.171875 64.09375 
Q 71.09375 55.28125 71.09375 36.53125 
Q 71.09375 17.671875 61.125 8.828125 
Q 51.171875 0 30.078125 0 
L 9.8125 0 
z
" id="DejaVuSans-68"/>
      <path d="M 2.984375 54.6875 
L 12.5 54.6875 
L 29.59375 8.796875 
L 46.6875 54.6875 
L 56.203125 54.6875 
L 35.6875 0 
L 23.484375 0 
z
" id="DejaVuSans-118"/>
      <path d="M 54.890625 33.015625 
L 54.890625 0 
L 45.90625 0 
L 45.90625 32.71875 
Q 45.90625 40.484375 42.875 44.328125 
Q 39.84375 48.1875 33.796875 48.1875 
Q 26.515625 48.1875 22.3125 43.546875 
Q 18.109375 38.921875 18.109375 30.90625 
L 18.109375 0 
L 9.078125 0 
L 9.078125 54.6875 
L 18.109375 54.6875 
L 18.109375 46.1875 
Q 21.34375 51.125 25.703125 53.5625 
Q 30.078125 56 35.796875 56 
Q 45.21875 56 50.046875 50.171875 
Q 54.890625 44.34375 54.890625 33.015625 
z
" id="DejaVuSans-110"/>
      <path d="M 18.3125 70.21875 
L 18.3125 54.6875 
L 36.8125 54.6875 
L 36.8125 47.703125 
L 18.3125 47.703125 
L 18.3125 18.015625 
Q 18.3125 11.328125 20.140625 9.421875 
Q 21.96875 7.515625 27.59375 7.515625 
L 36.8125 7.515625 
L 36.8125 0 
L 27.59375 0 
Q 17.1875 0 13.234375 3.875 
Q 9.28125 7.765625 9.28125 18.015625 
L 9.28125 47.703125 
L 2.6875 47.703125 
L 2.6875 54.6875 
L 9.28125 54.6875 
L 9.28125 70.21875 
z
" id="DejaVuSans-116"/>
      <path d="M 44.28125 53.078125 
L 44.28125 44.578125 
Q 40.484375 46.53125 36.375 47.5 
Q 32.28125 48.484375 27.875 48.484375 
Q 21.1875 48.484375 17.84375 46.4375 
Q 14.5 44.390625 14.5 40.28125 
Q 14.5 37.15625 16.890625 35.375 
Q 19.28125 33.59375 26.515625 31.984375 
L 29.59375 31.296875 
Q 39.15625 29.25 43.1875 25.515625 
Q 47.21875 21.78125 47.21875 15.09375 
Q 47.21875 7.46875 41.1875 3.015625 
Q 35.15625 -1.421875 24.609375 -1.421875 
Q 20.21875 -1.421875 15.453125 -0.5625 
Q 10.6875 0.296875 5.421875 2 
L 5.421875 11.28125 
Q 10.40625 8.6875 15.234375 7.390625 
Q 20.0625 6.109375 24.8125 6.109375 
Q 31.15625 6.109375 34.5625 8.28125 
Q 37.984375 10.453125 37.984375 14.40625 
Q 37.984375 18.0625 35.515625 20.015625 
Q 33.0625 21.96875 24.703125 23.78125 
L 21.578125 24.515625 
Q 13.234375 26.265625 9.515625 29.90625 
Q 5.8125 33.546875 5.8125 39.890625 
Q 5.8125 47.609375 11.28125 51.796875 
Q 16.75 56 26.8125 56 
Q 31.78125 56 36.171875 55.265625 
Q 40.578125 54.546875 44.28125 53.078125 
z
" id="DejaVuSans-115"/>
      <path d="M 34.28125 27.484375 
Q 23.390625 27.484375 19.1875 25 
Q 14.984375 22.515625 14.984375 16.5 
Q 14.984375 11.71875 18.140625 8.90625 
Q 21.296875 6.109375 26.703125 6.109375 
Q 34.1875 6.109375 38.703125 11.40625 
Q 43.21875 16.703125 43.21875 25.484375 
L 43.21875 27.484375 
z
M 52.203125 31.203125 
L 52.203125 0 
L 43.21875 0 
L 43.21875 8.296875 
Q 40.140625 3.328125 35.546875 0.953125 
Q 30.953125 -1.421875 24.3125 -1.421875 
Q 15.921875 -1.421875 10.953125 3.296875 
Q 6 8.015625 6 15.921875 
Q 6 25.140625 12.171875 29.828125 
Q 18.359375 34.515625 30.609375 34.515625 
L 43.21875 34.515625 
L 43.21875 35.40625 
Q 43.21875 41.609375 39.140625 45 
Q 35.0625 48.390625 27.6875 48.390625 
Q 23 48.390625 18.546875 47.265625 
Q 14.109375 46.140625 10.015625 43.890625 
L 10.015625 52.203125 
Q 14.9375 54.109375 19.578125 55.046875 
Q 24.21875 56 28.609375 56 
Q 40.484375 56 46.34375 49.84375 
Q 52.203125 43.703125 52.203125 31.203125 
z
" id="DejaVuSans-97"/>
      <path d="M 9.421875 75.984375 
L 18.40625 75.984375 
L 18.40625 0 
L 9.421875 0 
z
" id="DejaVuSans-108"/>
      <path d="M 9.421875 54.6875 
L 18.40625 54.6875 
L 18.40625 0 
L 9.421875 0 
z
M 9.421875 75.984375 
L 18.40625 75.984375 
L 18.40625 64.59375 
L 9.421875 64.59375 
z
" id="DejaVuSans-105"/>
      <path d="M 5.515625 54.6875 
L 48.1875 54.6875 
L 48.1875 46.484375 
L 14.40625 7.171875 
L 48.1875 7.171875 
L 48.1875 0 
L 4.296875 0 
L 4.296875 8.203125 
L 38.09375 47.515625 
L 5.515625 47.515625 
z
" id="DejaVuSans-122"/>
      <path d="M 45.40625 46.390625 
L 45.40625 75.984375 
L 54.390625 75.984375 
L 54.390625 0 
L 45.40625 0 
L 45.40625 8.203125 
Q 42.578125 3.328125 38.25 0.953125 
Q 33.9375 -1.421875 27.875 -1.421875 
Q 17.96875 -1.421875 11.734375 6.484375 
Q 5.515625 14.40625 5.515625 27.296875 
Q 5.515625 40.1875 11.734375 48.09375 
Q 17.96875 56 27.875 56 
Q 33.9375 56 38.25 53.625 
Q 42.578125 51.265625 45.40625 46.390625 
z
M 14.796875 27.296875 
Q 14.796875 17.390625 18.875 11.75 
Q 22.953125 6.109375 30.078125 6.109375 
Q 37.203125 6.109375 41.296875 11.75 
Q 45.40625 17.390625 45.40625 27.296875 
Q 45.40625 37.203125 41.296875 42.84375 
Q 37.203125 48.484375 30.078125 48.484375 
Q 22.953125 48.484375 18.875 42.84375 
Q 14.796875 37.203125 14.796875 27.296875 
z
" id="DejaVuSans-100"/>
      <path d="M 32.171875 -5.078125 
Q 28.375 -14.84375 24.75 -17.8125 
Q 21.140625 -20.796875 15.09375 -20.796875 
L 7.90625 -20.796875 
L 7.90625 -13.28125 
L 13.1875 -13.28125 
Q 16.890625 -13.28125 18.9375 -11.515625 
Q 21 -9.765625 23.484375 -3.21875 
L 25.09375 0.875 
L 2.984375 54.6875 
L 12.5 54.6875 
L 29.59375 11.921875 
L 46.6875 54.6875 
L 56.203125 54.6875 
z
" id="DejaVuSans-121"/>
      <path d="M 18.109375 8.203125 
L 18.109375 -20.796875 
L 9.078125 -20.796875 
L 9.078125 54.6875 
L 18.109375 54.6875 
L 18.109375 46.390625 
Q 20.953125 51.265625 25.265625 53.625 
Q 29.59375 56 35.59375 56 
Q 45.5625 56 51.78125 48.09375 
Q 58.015625 40.1875 58.015625 27.296875 
Q 58.015625 14.40625 51.78125 6.484375 
Q 45.5625 -1.421875 35.59375 -1.421875 
Q 29.59375 -1.421875 25.265625 0.953125 
Q 20.953125 3.328125 18.109375 8.203125 
z
M 48.6875 27.296875 
Q 48.6875 37.203125 44.609375 42.84375 
Q 40.53125 48.484375 33.40625 48.484375 
Q 26.265625 48.484375 22.1875 42.84375 
Q 18.109375 37.203125 18.109375 27.296875 
Q 18.109375 17.390625 22.1875 11.75 
Q 26.265625 6.109375 33.40625 6.109375 
Q 40.53125 6.109375 44.609375 11.75 
Q 48.6875 17.390625 48.6875 27.296875 
z
" id="DejaVuSans-112"/>
     </defs>
     <g transform="translate(371.027812 538.355312)scale(0.18 -0.18)">
      <use xlink:href="#DejaVuSans-78"/>
      <use x="74.804688" xlink:href="#DejaVuSans-117"/>
      <use x="138.183594" xlink:href="#DejaVuSans-109"/>
      <use x="235.595703" xlink:href="#DejaVuSans-98"/>
      <use x="299.072266" xlink:href="#DejaVuSans-101"/>
      <use x="360.595703" xlink:href="#DejaVuSans-114"/>
      <use x="401.708984" xlink:href="#DejaVuSans-32"/>
      <use x="433.496094" xlink:href="#DejaVuSans-111"/>
      <use x="494.677734" xlink:href="#DejaVuSans-102"/>
      <use x="529.882812" xlink:href="#DejaVuSans-32"/>
      <use x="561.669922" xlink:href="#DejaVuSans-84"/>
      <use x="622.753906" xlink:href="#DejaVuSans-69"/>
      <use x="685.9375" xlink:href="#DejaVuSans-68"/>
      <use x="762.939453" xlink:href="#DejaVuSans-32"/>
      <use x="794.726562" xlink:href="#DejaVuSans-101"/>
      <use x="856.25" xlink:href="#DejaVuSans-118"/>
      <use x="915.429688" xlink:href="#DejaVuSans-101"/>
      <use x="976.953125" xlink:href="#DejaVuSans-110"/>
      <use x="1040.332031" xlink:href="#DejaVuSans-116"/>
      <use x="1079.541016" xlink:href="#DejaVuSans-115"/>
      <use x="1131.640625" xlink:href="#DejaVuSans-32"/>
      <use x="1163.427734" xlink:href="#DejaVuSans-110"/>
      <use x="1226.806641" xlink:href="#DejaVuSans-111"/>
      <use x="1287.988281" xlink:href="#DejaVuSans-114"/>
      <use x="1327.351562" xlink:href="#DejaVuSans-109"/>
      <use x="1424.763672" xlink:href="#DejaVuSans-97"/>
      <use x="1486.042969" xlink:href="#DejaVuSans-108"/>
      <use x="1513.826172" xlink:href="#DejaVuSans-105"/>
      <use x="1541.609375" xlink:href="#DejaVuSans-122"/>
      <use x="1594.099609" xlink:href="#DejaVuSans-101"/>
      <use x="1655.623047" xlink:href="#DejaVuSans-100"/>
      <use x="1719.099609" xlink:href="#DejaVuSans-32"/>
      <use x="1750.886719" xlink:href="#DejaVuSans-98"/>
      <use x="1814.363281" xlink:href="#DejaVuSans-121"/>
      <use x="1873.542969" xlink:href="#DejaVuSans-32"/>
      <use x="1905.330078" xlink:href="#DejaVuSans-112"/>
      <use x="1968.806641" xlink:href="#DejaVuSans-111"/>
      <use x="2029.988281" xlink:href="#DejaVuSans-112"/>
      <use x="2093.464844" xlink:href="#DejaVuSans-117"/>
      <use x="2156.84375" xlink:href="#DejaVuSans-108"/>
      <use x="2184.626953" xlink:href="#DejaVuSans-97"/>
      <use x="2245.90625" xlink:href="#DejaVuSans-116"/>
      <use x="2285.115234" xlink:href="#DejaVuSans-105"/>
      <use x="2312.898438" xlink:href="#DejaVuSans-111"/>
      <use x="2374.080078" xlink:href="#DejaVuSans-110"/>
     </g>
    </g>
   </g>
   <g id="matplotlib.axis_2">
    <g id="ytick_1">
     <g id="line2d_6">
      <defs>
       <path d="M 0 0 
L -3.5 0 
" id="m7e1157692e" style="stroke:#000000;stroke-width:0.8;"/>
      </defs>
      <g>
       <use style="stroke:#000000;stroke-width:0.8;" x="144" xlink:href="#m7e1157692e" y="447.155757"/>
      </g>
     </g>
     <g id="text_7">
      <!-- 0 -->
      <g transform="translate(130.6375 450.954976)scale(0.1 -0.1)">
       <use xlink:href="#DejaVuSans-48"/>
      </g>
     </g>
    </g>
    <g id="ytick_2">
     <g id="line2d_7">
      <g>
       <use style="stroke:#000000;stroke-width:0.8;" x="144" xlink:href="#m7e1157692e" y="359.610793"/>
      </g>
     </g>
     <g id="text_8">
      <!-- 2 -->
      <g transform="translate(130.6375 363.410012)scale(0.1 -0.1)">
       <use xlink:href="#DejaVuSans-50"/>
      </g>
     </g>
    </g>
    <g id="ytick_3">
     <g id="line2d_8">
      <g>
       <use style="stroke:#000000;stroke-width:0.8;" x="144" xlink:href="#m7e1157692e" y="272.06583"/>
      </g>
     </g>
     <g id="text_9">
      <!-- 4 -->
      <g transform="translate(130.6375 275.865048)scale(0.1 -0.1)">
       <use xlink:href="#DejaVuSans-52"/>
      </g>
     </g>
    </g>
    <g id="ytick_4">
     <g id="line2d_9">
      <g>
       <use style="stroke:#000000;stroke-width:0.8;" x="144" xlink:href="#m7e1157692e" y="184.520866"/>
      </g>
     </g>
     <g id="text_10">
      <!-- 6 -->
      <defs>
       <path d="M 33.015625 40.375 
Q 26.375 40.375 22.484375 35.828125 
Q 18.609375 31.296875 18.609375 23.390625 
Q 18.609375 15.53125 22.484375 10.953125 
Q 26.375 6.390625 33.015625 6.390625 
Q 39.65625 6.390625 43.53125 10.953125 
Q 47.40625 15.53125 47.40625 23.390625 
Q 47.40625 31.296875 43.53125 35.828125 
Q 39.65625 40.375 33.015625 40.375 
z
M 52.59375 71.296875 
L 52.59375 62.3125 
Q 48.875 64.0625 45.09375 64.984375 
Q 41.3125 65.921875 37.59375 65.921875 
Q 27.828125 65.921875 22.671875 59.328125 
Q 17.53125 52.734375 16.796875 39.40625 
Q 19.671875 43.65625 24.015625 45.921875 
Q 28.375 48.1875 33.59375 48.1875 
Q 44.578125 48.1875 50.953125 41.515625 
Q 57.328125 34.859375 57.328125 23.390625 
Q 57.328125 12.15625 50.6875 5.359375 
Q 44.046875 -1.421875 33.015625 -1.421875 
Q 20.359375 -1.421875 13.671875 8.265625 
Q 6.984375 17.96875 6.984375 36.375 
Q 6.984375 53.65625 15.1875 63.9375 
Q 23.390625 74.21875 37.203125 74.21875 
Q 40.921875 74.21875 44.703125 73.484375 
Q 48.484375 72.75 52.59375 71.296875 
z
" id="DejaVuSans-54"/>
      </defs>
      <g transform="translate(130.6375 188.320085)scale(0.1 -0.1)">
       <use xlink:href="#DejaVuSans-54"/>
      </g>
     </g>
    </g>
    <g id="ytick_5">
     <g id="line2d_10">
      <g>
       <use style="stroke:#000000;stroke-width:0.8;" x="144" xlink:href="#m7e1157692e" y="96.975902"/>
      </g>
     </g>
     <g id="text_11">
      <!-- 8 -->
      <defs>
       <path d="M 31.78125 34.625 
Q 24.75 34.625 20.71875 30.859375 
Q 16.703125 27.09375 16.703125 20.515625 
Q 16.703125 13.921875 20.71875 10.15625 
Q 24.75 6.390625 31.78125 6.390625 
Q 38.8125 6.390625 42.859375 10.171875 
Q 46.921875 13.96875 46.921875 20.515625 
Q 46.921875 27.09375 42.890625 30.859375 
Q 38.875 34.625 31.78125 34.625 
z
M 21.921875 38.8125 
Q 15.578125 40.375 12.03125 44.71875 
Q 8.5 49.078125 8.5 55.328125 
Q 8.5 64.0625 14.71875 69.140625 
Q 20.953125 74.21875 31.78125 74.21875 
Q 42.671875 74.21875 48.875 69.140625 
Q 55.078125 64.0625 55.078125 55.328125 
Q 55.078125 49.078125 51.53125 44.71875 
Q 48 40.375 41.703125 38.8125 
Q 48.828125 37.15625 52.796875 32.3125 
Q 56.78125 27.484375 56.78125 20.515625 
Q 56.78125 9.90625 50.3125 4.234375 
Q 43.84375 -1.421875 31.78125 -1.421875 
Q 19.734375 -1.421875 13.25 4.234375 
Q 6.78125 9.90625 6.78125 20.515625 
Q 6.78125 27.484375 10.78125 32.3125 
Q 14.796875 37.15625 21.921875 38.8125 
z
M 18.3125 54.390625 
Q 18.3125 48.734375 21.84375 45.5625 
Q 25.390625 42.390625 31.78125 42.390625 
Q 38.140625 42.390625 41.71875 45.5625 
Q 45.3125 48.734375 45.3125 54.390625 
Q 45.3125 60.0625 41.71875 63.234375 
Q 38.140625 66.40625 31.78125 66.40625 
Q 25.390625 66.40625 21.84375 63.234375 
Q 18.3125 60.0625 18.3125 54.390625 
z
" id="DejaVuSans-56"/>
      </defs>
      <g transform="translate(130.6375 100.775121)scale(0.1 -0.1)">
       <use xlink:href="#DejaVuSans-56"/>
      </g>
     </g>
    </g>
    <g id="text_12">
     <!-- Total number of COVID-19 cases -->
     <defs>
      <path d="M 64.40625 67.28125 
L 64.40625 56.890625 
Q 59.421875 61.53125 53.78125 63.8125 
Q 48.140625 66.109375 41.796875 66.109375 
Q 29.296875 66.109375 22.65625 58.46875 
Q 16.015625 50.828125 16.015625 36.375 
Q 16.015625 21.96875 22.65625 14.328125 
Q 29.296875 6.6875 41.796875 6.6875 
Q 48.140625 6.6875 53.78125 8.984375 
Q 59.421875 11.28125 64.40625 15.921875 
L 64.40625 5.609375 
Q 59.234375 2.09375 53.4375 0.328125 
Q 47.65625 -1.421875 41.21875 -1.421875 
Q 24.65625 -1.421875 15.125 8.703125 
Q 5.609375 18.84375 5.609375 36.375 
Q 5.609375 53.953125 15.125 64.078125 
Q 24.65625 74.21875 41.21875 74.21875 
Q 47.75 74.21875 53.53125 72.484375 
Q 59.328125 70.75 64.40625 67.28125 
z
" id="DejaVuSans-67"/>
      <path d="M 39.40625 66.21875 
Q 28.65625 66.21875 22.328125 58.203125 
Q 16.015625 50.203125 16.015625 36.375 
Q 16.015625 22.609375 22.328125 14.59375 
Q 28.65625 6.59375 39.40625 6.59375 
Q 50.140625 6.59375 56.421875 14.59375 
Q 62.703125 22.609375 62.703125 36.375 
Q 62.703125 50.203125 56.421875 58.203125 
Q 50.140625 66.21875 39.40625 66.21875 
z
M 39.40625 74.21875 
Q 54.734375 74.21875 63.90625 63.9375 
Q 73.09375 53.65625 73.09375 36.375 
Q 73.09375 19.140625 63.90625 8.859375 
Q 54.734375 -1.421875 39.40625 -1.421875 
Q 24.03125 -1.421875 14.8125 8.828125 
Q 5.609375 19.09375 5.609375 36.375 
Q 5.609375 53.65625 14.8125 63.9375 
Q 24.03125 74.21875 39.40625 74.21875 
z
" id="DejaVuSans-79"/>
      <path d="M 28.609375 0 
L 0.78125 72.90625 
L 11.078125 72.90625 
L 34.1875 11.53125 
L 57.328125 72.90625 
L 67.578125 72.90625 
L 39.796875 0 
z
" id="DejaVuSans-86"/>
      <path d="M 9.8125 72.90625 
L 19.671875 72.90625 
L 19.671875 0 
L 9.8125 0 
z
" id="DejaVuSans-73"/>
      <path d="M 4.890625 31.390625 
L 31.203125 31.390625 
L 31.203125 23.390625 
L 4.890625 23.390625 
z
" id="DejaVuSans-45"/>
      <path d="M 10.984375 1.515625 
L 10.984375 10.5 
Q 14.703125 8.734375 18.5 7.8125 
Q 22.3125 6.890625 25.984375 6.890625 
Q 35.75 6.890625 40.890625 13.453125 
Q 46.046875 20.015625 46.78125 33.40625 
Q 43.953125 29.203125 39.59375 26.953125 
Q 35.25 24.703125 29.984375 24.703125 
Q 19.046875 24.703125 12.671875 31.3125 
Q 6.296875 37.9375 6.296875 49.421875 
Q 6.296875 60.640625 12.9375 67.421875 
Q 19.578125 74.21875 30.609375 74.21875 
Q 43.265625 74.21875 49.921875 64.515625 
Q 56.59375 54.828125 56.59375 36.375 
Q 56.59375 19.140625 48.40625 8.859375 
Q 40.234375 -1.421875 26.421875 -1.421875 
Q 22.703125 -1.421875 18.890625 -0.6875 
Q 15.09375 0.046875 10.984375 1.515625 
z
M 30.609375 32.421875 
Q 37.25 32.421875 41.125 36.953125 
Q 45.015625 41.5 45.015625 49.421875 
Q 45.015625 57.28125 41.125 61.84375 
Q 37.25 66.40625 30.609375 66.40625 
Q 23.96875 66.40625 20.09375 61.84375 
Q 16.21875 57.28125 16.21875 49.421875 
Q 16.21875 41.5 20.09375 36.953125 
Q 23.96875 32.421875 30.609375 32.421875 
z
" id="DejaVuSans-57"/>
      <path d="M 48.78125 52.59375 
L 48.78125 44.1875 
Q 44.96875 46.296875 41.140625 47.34375 
Q 37.3125 48.390625 33.40625 48.390625 
Q 24.65625 48.390625 19.8125 42.84375 
Q 14.984375 37.3125 14.984375 27.296875 
Q 14.984375 17.28125 19.8125 11.734375 
Q 24.65625 6.203125 33.40625 6.203125 
Q 37.3125 6.203125 41.140625 7.25 
Q 44.96875 8.296875 48.78125 10.40625 
L 48.78125 2.09375 
Q 45.015625 0.34375 40.984375 -0.53125 
Q 36.96875 -1.421875 32.421875 -1.421875 
Q 20.0625 -1.421875 12.78125 6.34375 
Q 5.515625 14.109375 5.515625 27.296875 
Q 5.515625 40.671875 12.859375 48.328125 
Q 20.21875 56 33.015625 56 
Q 37.15625 56 41.109375 55.140625 
Q 45.0625 54.296875 48.78125 52.59375 
z
" id="DejaVuSans-99"/>
     </defs>
     <g transform="translate(122.894062 431.850937)rotate(-90)scale(0.18 -0.18)">
      <use xlink:href="#DejaVuSans-84"/>
      <use x="44.083984" xlink:href="#DejaVuSans-111"/>
      <use x="105.265625" xlink:href="#DejaVuSans-116"/>
      <use x="144.474609" xlink:href="#DejaVuSans-97"/>
      <use x="205.753906" xlink:href="#DejaVuSans-108"/>
      <use x="233.537109" xlink:href="#DejaVuSans-32"/>
      <use x="265.324219" xlink:href="#DejaVuSans-110"/>
      <use x="328.703125" xlink:href="#DejaVuSans-117"/>
      <use x="392.082031" xlink:href="#DejaVuSans-109"/>
      <use x="489.494141" xlink:href="#DejaVuSans-98"/>
      <use x="552.970703" xlink:href="#DejaVuSans-101"/>
      <use x="614.494141" xlink:href="#DejaVuSans-114"/>
      <use x="655.607422" xlink:href="#DejaVuSans-32"/>
      <use x="687.394531" xlink:href="#DejaVuSans-111"/>
      <use x="748.576172" xlink:href="#DejaVuSans-102"/>
      <use x="783.78125" xlink:href="#DejaVuSans-32"/>
      <use x="815.568359" xlink:href="#DejaVuSans-67"/>
      <use x="885.392578" xlink:href="#DejaVuSans-79"/>
      <use x="962.353516" xlink:href="#DejaVuSans-86"/>
      <use x="1030.761719" xlink:href="#DejaVuSans-73"/>
      <use x="1060.253906" xlink:href="#DejaVuSans-68"/>
      <use x="1137.255859" xlink:href="#DejaVuSans-45"/>
      <use x="1173.339844" xlink:href="#DejaVuSans-49"/>
      <use x="1236.962891" xlink:href="#DejaVuSans-57"/>
      <use x="1300.585938" xlink:href="#DejaVuSans-32"/>
      <use x="1332.373047" xlink:href="#DejaVuSans-99"/>
      <use x="1387.353516" xlink:href="#DejaVuSans-97"/>
      <use x="1448.632812" xlink:href="#DejaVuSans-115"/>
      <use x="1500.732422" xlink:href="#DejaVuSans-101"/>
      <use x="1562.255859" xlink:href="#DejaVuSans-115"/>
     </g>
    </g>
    <g id="text_13">
     <!-- 1e6 -->
     <g transform="translate(144 66.12)scale(0.1 -0.1)">
      <use xlink:href="#DejaVuSans-49"/>
      <use x="63.623047" xlink:href="#DejaVuSans-101"/>
      <use x="125.146484" xlink:href="#DejaVuSans-54"/>
     </g>
    </g>
   </g>
   <g id="line2d_11">
    <path clip-path="url(#pc9430c6107)" d="M 144 441.791368 
L 153.018182 439.221619 
L 162.036364 436.914827 
L 171.054545 434.862561 
L 180.072727 433.05639 
L 189.090909 431.487881 
L 198.109091 430.148604 
L 207.127273 429.030127 
L 216.145455 428.12402 
L 225.163636 427.421849 
L 234.181818 426.915186 
L 243.2 426.595597 
L 252.218182 426.454651 
L 261.236364 426.483918 
L 270.254545 426.674966 
L 279.272727 427.019363 
L 288.290909 427.508678 
L 297.309091 428.13448 
L 306.327273 428.888338 
L 315.345455 429.761819 
L 324.363636 430.746494 
L 333.381818 431.833929 
L 342.4 433.015695 
L 351.418182 434.28336 
L 360.436364 435.628492 
L 369.454545 437.04266 
L 378.472727 438.517433 
L 387.490909 440.044379 
L 396.509091 441.615066 
L 405.527273 443.221065 
L 414.545455 444.853943 
L 423.563636 446.505269 
L 432.581818 448.166611 
L 441.6 449.829539 
L 450.618182 451.48562 
L 459.636364 453.126424 
L 468.654545 454.743519 
L 477.672727 456.328474 
L 486.690909 457.872858 
L 495.709091 459.368239 
L 504.727273 460.806185 
L 513.745455 462.178266 
L 522.763636 463.47605 
L 531.781818 464.691106 
L 540.8 465.815002 
L 549.818182 466.839307 
L 558.836364 467.75559 
L 567.854545 468.555419 
L 576.872727 469.230363 
L 585.890909 469.771991 
L 594.909091 470.171871 
L 603.927273 470.421572 
L 612.945455 470.512663 
L 621.963636 470.436712 
L 630.981818 470.185288 
L 640 469.749959 
L 649.018182 469.122295 
L 658.036364 468.293863 
L 667.054545 467.256233 
L 676.072727 466.000974 
L 685.090909 464.519653 
L 694.109091 462.803839 
L 703.127273 460.845102 
L 712.145455 458.635009 
L 721.163636 456.16513 
L 730.181818 453.427033 
L 739.2 450.412286 
L 748.218182 447.112459 
L 757.236364 443.51912 
L 766.254545 439.623838 
L 775.272727 435.418181 
L 784.290909 430.893718 
L 793.309091 426.042018 
L 802.327273 420.854648 
L 811.345455 415.323179 
L 820.363636 409.439179 
L 829.381818 403.194215 
L 838.4 396.579858 
L 847.418182 389.587675 
L 856.436364 382.209235 
L 865.454545 374.436108 
L 874.472727 366.25986 
L 883.490909 357.672062 
L 892.509091 348.664281 
L 901.527273 339.228088 
L 910.545455 329.355049 
L 919.563636 319.036734 
L 928.581818 308.264711 
L 937.6 297.030549 
L 946.618182 285.325817 
L 955.636364 273.142084 
L 964.654545 260.470917 
L 973.672727 247.303886 
L 982.690909 233.632559 
L 991.709091 219.448506 
L 1000.727273 204.743294 
L 1009.745455 189.508492 
L 1018.763636 173.735669 
L 1027.781818 157.416394 
L 1036.8 140.542235 
" style="fill:none;stroke:#008000;stroke-linecap:square;stroke-width:2.25;"/>
   </g>
   <g id="patch_3">
    <path d="M 144 504 
L 144 69.12 
" style="fill:none;stroke:#000000;stroke-linecap:square;stroke-linejoin:miter;stroke-width:3;"/>
   </g>
   <g id="patch_4">
    <path d="M 144 504 
L 1036.8 504 
" style="fill:none;stroke:#000000;stroke-linecap:square;stroke-linejoin:miter;stroke-width:3;"/>
   </g>
  </g>
 </g>
 <defs>
  <clipPath id="pc9430c6107">
   <rect height="434.88" width="892.8" x="144" y="69.12"/>
  </clipPath>
 </defs>
</svg>
